<svg xmlns="http://www.w3.org/2000/svg" xmlns:xlink="http://www.w3.org/1999/xlink" width="505" height="331.175" viewBox="0 0 505 331.175">
  <defs>
    <clipPath id="clip-path">
      <rect id="Rect치ngulo_404687" data-name="Rect치ngulo 404687" width="505" height="331.175" fill="none"/>
    </clipPath>
  </defs>
  <g id="Grupo_1107314" data-name="Grupo 1107314" transform="translate(0 -0.004)">
    <g id="Grupo_1107313" data-name="Grupo 1107313" transform="translate(0 0.004)" clip-path="url(#clip-path)">
      <path id="Trazado_887402" data-name="Trazado 887402" d="M488.514,246.86c-12.849-17.747-31.076-31.305-50.3-42.144-22.3-12.572-46.5-22.216-71.026-29.936a508.352,508.352,0,0,0-78.11-17.71c-50.958-7.554-104.618-10.145-155.051,1.946-23.571,5.651-46.5,14.666-66.511,28.054a165.673,165.673,0,0,0-45.809,45.408C10.175,249.792,2.354,269.535.445,290.1a111.8,111.8,0,0,0,11.378,59.432C30.6,387.842,67.459,416.046,108.061,430.8c49.622,18.036,118.369,17.729,170.737,17.729,76.663,0,153.661-14.738,201.995-80.121,26.353-35.649,34.463-84.617,7.722-121.552" transform="translate(0 -117.393)" fill="#f5eec2"/>
      <path id="Trazado_887403" data-name="Trazado 887403" d="M1239.423,99.5h66.116a8.384,8.384,0,0,0,8.384-8.384V36.4a8.384,8.384,0,0,0-8.975-8.363L1238.833,32.7a8.384,8.384,0,0,0-7.794,8.363V91.112a8.384,8.384,0,0,0,8.384,8.384" transform="translate(-959.122 -21.827)" fill="#fd9f81"/>
      <rect id="Rect치ngulo_404686" data-name="Rect치ngulo 404686" width="34.655" height="9.177" transform="translate(297.179 50.604) rotate(-40.764)" fill="#fff"/>
      <path id="Trazado_887404" data-name="Trazado 887404" d="M1318.851,221.643a11.029,11.029,0,0,1-7.764,2.672,1.572,1.572,0,0,1-.964-2.758l3.8-3.275a1.539,1.539,0,0,0,.161-2.171l-4.907-5.692a1.539,1.539,0,0,0-2.171-.161l-3.8,3.272a1.572,1.572,0,0,1-2.582-1.38,11.058,11.058,0,1,1,18.224,9.493" transform="translate(-1013.333 -157.567)" fill="#fff"/>
      <path id="Trazado_887405" data-name="Trazado 887405" d="M1463.443,96.833a11.059,11.059,0,1,1-6.528-19.413,1.532,1.532,0,0,1,.872,2.692l-3.872,3.338a1.522,1.522,0,0,0-.159,2.147l4.93,5.718a1.522,1.522,0,0,0,2.146.159l3.875-3.341a1.537,1.537,0,0,1,2.528,1.33,11.019,11.019,0,0,1-3.792,7.371" transform="translate(-1125.971 -60.303)" fill="#fff"/>
      <path id="Trazado_887406" data-name="Trazado 887406" d="M1444.664,142.429a12.219,12.219,0,0,0,5.6,6.576c.642.354,1.216-.628.574-.983a11.027,11.027,0,0,1-5.073-5.9c-.243-.685-1.343-.39-1.1.3" transform="translate(-1125.532 -110.431)" fill="#1e203d"/>
      <path id="Trazado_887407" data-name="Trazado 887407" d="M1371.268,205.933a13.929,13.929,0,0,1,5.178,6.116.573.573,0,0,0,.779.2.584.584,0,0,0,.2-.779,14.972,14.972,0,0,0-5.587-6.524c-.617-.4-1.188.586-.574.983" transform="translate(-1068.172 -159.608)" fill="#1e203d"/>
      <path id="Trazado_887408" data-name="Trazado 887408" d="M1271.608,310.032l.708,18.82a2.954,2.954,0,0,0,4.84,2.161l18.173-15.1-14.106-7.642Z" transform="translate(-990.73 -240.177)" fill="#fd9f81"/>
      <path id="Trazado_887409" data-name="Trazado 887409" d="M125.12,1086.53a68.5,68.5,0,0,0-3.217-9.738,69.747,69.747,0,0,0-7.952-14.232c-.229-.316-.469-.625-.7-.937-2.674-7.068-5.579-14.05-8.868-20.856a164.732,164.732,0,0,0-13.147-22.73,116.129,116.129,0,0,0-16.587-19.167,95.974,95.974,0,0,0-19.912-14.145,78.355,78.355,0,0,0-22.661-7.964,55.918,55.918,0,0,0-11.621-1.049c-3.126.1-6.789.8-8.765,3.479-2.321,3.148-1.055,7.02.955,9.955,2.414,3.525,5.869,6.334,9,9.2q10.084,9.237,20.8,17.755,10.756,8.55,22.092,16.333c.427.293.861.577,1.289.869q-3.312-1.18-6.713-2.093a84.563,84.563,0,0,0-39.12-1.164,67.415,67.415,0,0,0-9.3,2.58,20.747,20.747,0,0,0-7.511,4.464A8.383,8.383,0,0,0,.5,1044.337c.444,2.764,2.412,4.9,4.65,6.432a36.681,36.681,0,0,0,8.733,3.969q5.562,1.955,11.236,3.57a197.018,197.018,0,0,0,23.635,5.19q7.576,1.182,15.23,1.773a74.779,74.779,0,0,0-10.049,3.82,73.164,73.164,0,0,0-7.094,3.792,44.491,44.491,0,0,0-6.63,4.636c-1.766,1.582-3.022,3.657-2.655,6.1a8.542,8.542,0,0,0,3.71,5.579,14.625,14.625,0,0,0,7.811,2.089c3.155.106,6.33-.1,9.483-.2q20.183-.635,40.363-1.373,11.643-.428,23.286-.888,1.447-1.158,2.908-2.3" transform="translate(-0.321 -760.179)" fill="#7bb5f2"/>
      <path id="Trazado_887410" data-name="Trazado 887410" d="M292.2,1233.351a143.509,143.509,0,0,1,65.007,43.78c.473.56,1.275-.249.8-.8a144.656,144.656,0,0,0-65.51-44.072c-.7-.228-1,.871-.3,1.1" transform="translate(-227.353 -960.045)" fill="#1e203d"/>
      <path id="Trazado_887411" data-name="Trazado 887411" d="M287.228,1375.527a86.8,86.8,0,0,1,25.548.458,88.549,88.549,0,0,1,24.349,7.794,86.309,86.309,0,0,1,12.424,7.448c.6.429,1.164-.558.574-.983a87.774,87.774,0,0,0-22.88-11.777,89.6,89.6,0,0,0-25.426-4.744,86.326,86.326,0,0,0-14.589.666c-.716.094-.725,1.233,0,1.138" transform="translate(-223.363 -1070.239)" fill="#1e203d"/>
      <path id="Trazado_887412" data-name="Trazado 887412" d="M1376.561,782.623s3.115-8.072,3.292-12.138a7.676,7.676,0,0,0-1.956-5.539,18.43,18.43,0,0,0-5.6-4.006c-5.027-2.584-15.3-7.485-17.808-8.583-4.668-2.045-12.254-8.347-14.964-3.865-1.757,2.906-3.481,5.568-6.577,10.366-2.736,4.24-22.385,36.822-25.281,41.744-5.651-7.167-26.1-37.949-32.042-45.638-5.662-7.321-11.052-12.44-25.447-16.495a135.561,135.561,0,0,0-29.626-4.752c13.75,22.306,18.77,49.83,25.593,75.547a121.142,121.142,0,0,1,3.009,29.948c7.042,8.432,12.965,15.71,22.314,25.863,5.04,5.475,15.435,16.245,22.185,19.393,7,3.263,14.766,5.707,22.572,4.882,28.895-3.055,41.414-32.182,51.416-57.188,3.025-7.561,8.876-24.4,11.769-32.524,4.457-12.519-2.848-17.016-2.848-17.016" transform="translate(-950.951 -571.652)" fill="#fff"/>
      <path id="Trazado_887413" data-name="Trazado 887413" d="M1720.495,860.592a114.938,114.938,0,0,0,34.372,17.542q5.34,1.687,10.822,2.864c.714.154,1.019-.943.3-1.1a116.926,116.926,0,0,1-36.028-14.268q-4.592-2.792-8.9-6.023c-.586-.44-1.154.548-.574.982" transform="translate(-1340.276 -669.65)" fill="#1e203d"/>
      <path id="Trazado_887414" data-name="Trazado 887414" d="M629.444,808.089c-6.823-25.717-11.842-53.241-25.593-75.547a326.586,326.586,0,0,0-32.947.2c-32.239,1.449-75.343-5.436-98.259,23.386-5.627,7.077-9.746,15.207-13.608,23.34q-6.822,14.367-13.085,28.992c-4.189,9.762-8.3,19.585-12.009,29.539-3.462,9.283-6.407,19.448-4.126,29.377,1.759,7.655,6.459,14.275,12.437,19.255A52.538,52.538,0,0,0,464.8,897.283c2.156.472,4.327.835,6.509,1.117h90.025c7.157-1.2,14.279-2.6,21.363-4.174,6.946-1.538,12.922,4.666,20.038,4.174,6.328-.438,11.04-5.326,14.371-11.27,5.964-10.643,13.213-46.72,13.746-51.008q.813.969,1.6,1.914a121.127,121.127,0,0,0-3.009-29.948" transform="translate(-334.25 -570.476)" fill="#fff"/>
      <path id="Trazado_887415" data-name="Trazado 887415" d="M1148.79,490.476a10.838,10.838,0,1,1-10.838-10.838,10.838,10.838,0,0,1,10.838,10.838" transform="translate(-878.152 -373.694)" fill="#fff"/>
      <path id="Trazado_887416" data-name="Trazado 887416" d="M1016.363,467.049c-6.634-14.764-7.52-38.539-7.52-38.539l-.313.465c-.308-1.472-.556-2.853-.708-4.069-.674-5.36-1.509-9.7-6.348-13.023-2.98-2.044-6.547-2.229-10.648,1.3-3.931,3.382-6.034,8.819-8.5,13.286a47.183,47.183,0,0,0-5.789,16.806c-.706,5.564-20.9,11.295-18.563,16.691,2.12,4.9,10.472,10.647,15.565,12.582a55.948,55.948,0,0,0,16.135,4c4.875.495,30.379-1.274,26.686-9.493" transform="translate(-746.228 -319.767)" fill="#1e203d"/>
      <path id="Trazado_887417" data-name="Trazado 887417" d="M958.342,708.544H926.089a4.924,4.924,0,0,1-4.924-4.924v-6.394a12.5,12.5,0,0,1,12.5-12.5h17.092a12.5,12.5,0,0,1,12.5,12.5v6.394a4.924,4.924,0,0,1-4.924,4.924" transform="translate(-717.694 -533.479)" fill="#fff"/>
      <path id="Trazado_887418" data-name="Trazado 887418" d="M1014.307,759.758c.358,2.542.633,5.367.881,8.025.374,4,.694,8.009.995,12.016q.559,7.456,1.028,14.918.544,8.524,1.009,17.052.5,9.1.923,18.2.429,9.217.775,18.437.329,8.834.562,17.672.207,8.082.292,16.166c.041,4.551.044,9.1-.043,13.654-.065,3.41-.167,6.825-.441,10.226q-.075.932-.174,1.862c-.078.727,1.06.722,1.138,0,.332-3.073.456-6.168.547-9.255.127-4.3.15-8.6.134-12.906-.019-5.214-.1-10.428-.217-15.64q-.195-8.774-.508-17.545-.32-9.182-.731-18.36t-.894-18.34q-.461-8.7-.995-17.4-.479-7.776-1.033-15.548c-.307-4.261-.634-8.521-1.009-12.777-.268-3.045-.55-6.09-.926-9.123q-.1-.819-.216-1.636c-.1-.722-1.2-.415-1.1.3" transform="translate(-790.258 -591.384)" fill="#1e203d"/>
      <path id="Trazado_887419" data-name="Trazado 887419" d="M948.054,773.087l14.819-13.034c.551-.485-.256-1.287-.8-.8l-14.82,13.034c-.551.485.256,1.287.8.8" transform="translate(-737.873 -591.427)" fill="#1e203d"/>
      <path id="Trazado_887420" data-name="Trazado 887420" d="M1031.344,771.28l-16.1-12.307c-.582-.445-1.149.543-.574.983l16.1,12.307c.581.445,1.149-.543.574-.983" transform="translate(-790.359 -591.241)" fill="#1e203d"/>
      <path id="Trazado_887421" data-name="Trazado 887421" d="M917.037,736.72a36.509,36.509,0,0,0,6.726,18.39c.424.589,1.412.022.983-.574a35.406,35.406,0,0,1-6.571-17.816c-.058-.725-1.2-.731-1.138,0" transform="translate(-714.477 -573.566)" fill="#1e203d"/>
      <path id="Trazado_887422" data-name="Trazado 887422" d="M1088.155,750.471a36.1,36.1,0,0,0,5.29-18.768.569.569,0,0,0-1.138,0,34.948,34.948,0,0,1-5.135,18.194c-.383.626.6,1.2.983.574" transform="translate(-846.965 -569.654)" fill="#1e203d"/>
      <path id="Trazado_887423" data-name="Trazado 887423" d="M1335.021,1036.167a280.16,280.16,0,0,1,1.127,28.307q-.044,4.019-.2,8.034c-.029.732,1.109.731,1.138,0a280.258,280.258,0,0,0-.311-28.327q-.248-4.011-.612-8.013c-.065-.724-1.2-.73-1.138,0" transform="translate(-1040.134 -806.871)" fill="#1e203d"/>
      <path id="Trazado_887424" data-name="Trazado 887424" d="M1556.064,1059.558c3.727-7.964,7.959-15.676,12.347-23.292a.569.569,0,0,0-.983-.574c-4.388,7.616-8.621,15.328-12.347,23.292-.308.66.672,1.238.983.575" transform="translate(-1211.542 -806.709)" fill="#1e203d"/>
      <path id="Trazado_887425" data-name="Trazado 887425" d="M797.913,1011.634l-7.474,20.311c-.253.688.846.985,1.1.3l7.474-20.311c.253-.688-.846-.985-1.1-.3" transform="translate(-615.814 -787.879)" fill="#1e203d"/>
      <path id="Trazado_887426" data-name="Trazado 887426" d="M916.046,317.611c6.736-4.2,15.762-7.4,23.876-5.922,10.979,1.995,9.564,15.252,5.895,22.958-3.089,6.488-9.462,13.478-17.068,15.917a26.527,26.527,0,0,1,.407,8.053c-.344,3.41-.946,6.643-.946,6.643s.022,7.764-6.063,10.138v-4.461s-10.581-3.951-16.285-16.613-1.524-29.409,10.184-36.714" transform="translate(-703.801 -242.558)" fill="#1e203d"/>
      <path id="Trazado_887427" data-name="Trazado 887427" d="M1026.048,334.617a29.58,29.58,0,0,1,14.946-6.173,28.1,28.1,0,0,1,14.353,2.009,25.3,25.3,0,0,1,10.741,8.526c5.157,7.366,3.9,17.358-2.338,23.832-1.966-1.587-3.294-3.064-5.285-4.625q-7.939-6.226-16.13-12.179-8.026-5.833-16.287-11.39" transform="translate(-799.41 -255.74)" fill="#1e203d"/>
      <path id="Trazado_887428" data-name="Trazado 887428" d="M1005.448,338.761c-7.207-20.469-41.154-30.446-51.064-1.1-3.794,11.236.28,23.7,3.884,34.391,3.371,10,6.237,20.116,16.272,25.29a24.244,24.244,0,0,0,17.4,2.047,19.2,19.2,0,0,0,7.655-4.17,22.457,22.457,0,0,0,5.287-7.284c2.661-5.711,1.6-17.6,1.526-23.822-.093-7.508,1.534-18.274-.958-25.353" transform="translate(-742.392 -248.775)" fill="#ffa67d"/>
      <path id="Trazado_887429" data-name="Trazado 887429" d="M1067.591,530.093a2.661,2.661,0,1,1,5.315-.265c.037.729,1.175.733,1.138,0a3.8,3.8,0,1,0-7.591.265c.023.73,1.161.734,1.138,0" transform="translate(-830.889 -409.934)" fill="#1e203d"/>
      <path id="Trazado_887430" data-name="Trazado 887430" d="M1145.522,530.093a2.661,2.661,0,1,1,5.315-.265c.037.729,1.175.733,1.138,0a3.8,3.8,0,1,0-7.591.265c.023.73,1.161.734,1.138,0" transform="translate(-891.607 -409.934)" fill="#1e203d"/>
      <path id="Trazado_887431" data-name="Trazado 887431" d="M991.845,558.313s-.636,23.432-1.108,33.985c0,0-.45,7.391-11.424,7.066-10.293-.3-10.688-9.453-10.688-9.453l.165-32.1Z" transform="translate(-754.671 -434.602)" fill="#ffa67d"/>
      <path id="Trazado_887432" data-name="Trazado 887432" d="M1097.682,592.03a.611.611,0,0,1,.6-.781c2.175.045,7.445.157,10.515.209a.61.61,0,0,1,.57.795,9.659,9.659,0,0,1-.886,1.995,5.679,5.679,0,0,1-5.036,2.735c-3.55-.1-4.955-2.136-5.759-4.952" transform="translate(-855.203 -460.653)" fill="#1e203d"/>
      <path id="Trazado_887433" data-name="Trazado 887433" d="M960.975,518.4c4.787-4.786,3.483-12.9-3.029-15.3-6.757-2.493-11.883,3.63-11.723,8.277.253,7.344,9.055,12.726,14.752,7.028" transform="translate(-737.215 -391.522)" fill="#ffa67d"/>
      <path id="Trazado_887434" data-name="Trazado 887434" d="M970.082,525.975a7.407,7.407,0,0,0,.965,8.561c.49.547,1.292-.26.8-.8a6.233,6.233,0,0,1-.787-7.182c.357-.64-.626-1.215-.983-.574" transform="translate(-755.076 -409.578)" fill="#1e203d"/>
      <path id="Trazado_887435" data-name="Trazado 887435" d="M1051.561,485.255a3.848,3.848,0,0,0,3.143.8c1.361-.091,2.72-.2,4.079-.307a7.354,7.354,0,0,0,3.22-.65,2.694,2.694,0,0,0,1.269-2.933,4.846,4.846,0,0,0-4.313-3.39c-2.671-.271-6.359.778-7.712,3.317a2.72,2.72,0,0,0,.314,3.166" transform="translate(-818.761 -372.987)" fill="#1e203d"/>
      <path id="Trazado_887436" data-name="Trazado 887436" d="M1143.238,482.089c-1.353-2.539-5.041-3.588-7.712-3.317a4.846,4.846,0,0,0-4.313,3.39,2.694,2.694,0,0,0,1.27,2.933,7.352,7.352,0,0,0,3.22.65c1.359.1,2.719.216,4.079.307a3.849,3.849,0,0,0,3.143-.8,2.72,2.72,0,0,0,.314-3.166" transform="translate(-881.295 -372.987)" fill="#1e203d"/>
      <path id="Trazado_887437" data-name="Trazado 887437" d="M1121.733,530.333c.993,1.805,2.411,4.556.59,6.345-.523.514.282,1.319.8.8a4.382,4.382,0,0,0,1.17-3.565,11.069,11.069,0,0,0-1.583-4.159c-.353-.642-1.336-.068-.983.574" transform="translate(-873.901 -412.526)" fill="#1e203d"/>
      <path id="Trazado_887438" data-name="Trazado 887438" d="M1043.095,668.549q2.512,1.234,5.107,2.288a.573.573,0,0,0,.7-.4.583.583,0,0,0-.4-.7c-1.637-.666-3.249-1.394-4.835-2.173a.584.584,0,0,0-.779.2.575.575,0,0,0,.2.779" transform="translate(-812.475 -520.058)" fill="#1e203d"/>
      <path id="Trazado_887439" data-name="Trazado 887439" d="M938.94,353.795s11.949-4.723,19.067-14.962a8.886,8.886,0,0,0,7.625,2.332,12.613,12.613,0,0,0,9.8-9.631,36.53,36.53,0,0,1,7.065,17.587s6.963-14.951-2.465-26-23.574-14.034-36.935-11.253-21.619,25.162-21.255,28.183c2.94,24.432,17.1,13.745,17.1,13.745" transform="translate(-718.208 -242.221)" fill="#1e203d"/>
      <path id="Trazado_887440" data-name="Trazado 887440" d="M878.3,460.456a79.7,79.7,0,0,1-5.666-23.652l-3.106,1.658c-.291-1.011-.592-1.98-.884-2.86-.319-1.568,5.55-2.978,5.218-4.543l-2.327-10.988c-1.115-5.264-3.771-13.61-8.353-16.979-2.822-2.075-8.253-6.059-10.96-1.1-3.13,5.737-4.059,12.125-6,17.857-3.546,10.476-8.21,21.2-9.564,32.234-.642,5.235,1.249,9.478,5.794,12.17,6.724,3.983,14.682,4.19,21.986,3.629,3.851-.3,12.436-.656,13.961-5.408a2.932,2.932,0,0,0-.1-2.023" transform="translate(-651.763 -311.342)" fill="#1e203d"/>
      <path id="Trazado_887441" data-name="Trazado 887441" d="M932.915,422.091A50.5,50.5,0,0,0,952.953,405.6c.428-.6-.559-1.165-.982-.574a49.4,49.4,0,0,1-19.63,16.08c-.666.3-.088,1.284.574.983" transform="translate(-726.171 -315.371)" fill="#7d83ab"/>
      <path id="Trazado_887442" data-name="Trazado 887442" d="M978.064,375.779a49.233,49.233,0,0,0,9.2-9.8c.425-.6-.561-1.167-.983-.575a48.193,48.193,0,0,1-9.025,9.566c-.57.46.24,1.261.8.8" transform="translate(-761.247 -284.501)" fill="#7d83ab"/>
      <path id="Trazado_887443" data-name="Trazado 887443" d="M825.625,312.15c-11.4-10.5-34.262-.315-32.3,15.913,2.224,18.347,25.668,17.282,34.5,5.045,4.979-6.9,4.047-15.2-2.2-20.957" transform="translate(-618.003 -239.87)" fill="#1e203d"/>
      <path id="Trazado_887444" data-name="Trazado 887444" d="M903.437,342.9a47.9,47.9,0,0,0-11.618,17.895,50.523,50.523,0,0,0-1.867,7.075c-.137.716.959,1.022,1.1.3A44.6,44.6,0,0,1,900.333,348c1.231-1.5,2.546-2.919,3.909-4.3a.569.569,0,0,0-.8-.8" transform="translate(-693.367 -267.024)" fill="#7d83ab"/>
      <path id="Trazado_887445" data-name="Trazado 887445" d="M941.167,499.165a10.838,10.838,0,1,1-10.838-10.838,10.838,10.838,0,0,1,10.838,10.838" transform="translate(-716.389 -380.464)" fill="#fff"/>
      <path id="Trazado_887446" data-name="Trazado 887446" d="M963.473,488.661a10.273,10.273,0,0,1,.437,19.647c-.691.232-.394,1.332.3,1.1a11.413,11.413,0,0,0-.437-21.842.57.57,0,0,0-.3,1.1" transform="translate(-750.345 -379.849)" fill="#1e203d"/>
      <path id="Trazado_887447" data-name="Trazado 887447" d="M1156.063,597.87c-1.908.094-4.164.9-4.286,3.095-.118,2.117,2.071,3.15,3.9,3.106,2.008-.049,4.146-.918,4.29-3.007.167-2.407-1.318-3.32-3.9-3.193" transform="translate(-897.364 -465.802)" fill="#fff"/>
      <path id="Trazado_887448" data-name="Trazado 887448" d="M1176.769,558.2c3.061.205,6.052-1.847,7.835-4.181a9.569,9.569,0,0,0,1.608-9.158c-.252-.681-1.352-.387-1.1.3a8.473,8.473,0,0,1-1.366,8.113c-1.568,2.1-4.252,3.969-6.98,3.786-.731-.049-.728,1.089,0,1.138" transform="translate(-916.413 -424.21)" fill="#fff"/>
      <path id="Trazado_887449" data-name="Trazado 887449" d="M956.671,351.635c-1.213-12.564-2.329-27.24,7.4-36.962a19.043,19.043,0,0,1,7.914-4.832.57.57,0,0,0-.3-1.1c-5.578,1.687-9.951,5.9-12.752,10.913-3.277,5.866-4.254,12.617-4.225,19.258.018,4.253.42,8.491.829,12.72.07.723,1.208.73,1.138,0" transform="translate(-743.824 -240.527)" fill="#fff"/>
      <path id="Trazado_887450" data-name="Trazado 887450" d="M1843.192,616.311a4.933,4.933,0,0,0,1.762-3.373c.112-1.823-1.648-3.833-3.664-4.441a4.447,4.447,0,0,0,1.319-3.46,4.55,4.55,0,0,0-2.692-3.2,24.192,24.192,0,0,0-5.573-1.9,64.03,64.03,0,0,0-12.938-1.518c-4.007-.131-13.487-1.045-15.149-1.043.963-2.072,1.831-2.929,2.732-5.03a8.848,8.848,0,0,0,.5-6.331,4.419,4.419,0,0,0-4.941-2.914c-2.861.367-5.358,2.453-7.6,4.171-5.6,4.287-11.113,8.679-16.624,13.071-5.99,4.774-9.946,8.869-13.378,15.457-2.882,5.532-4,7.628-7.772,15.308,0,0,18,11.387,36.386,14.684,0,0,3.7-7.847,7-15.12,11.858-1.139,28.955-3.379,30.456-3.614,3.7-.579,6.937-1.021,9.207-3.615,1.26-1.439,2.291-3.927,1.832-5.646a3.32,3.32,0,0,0-.868-1.49" transform="translate(-1370.6 -454.271)" fill="#ffa67d"/>
      <path id="Trazado_887451" data-name="Trazado 887451" d="M1933.094,652.981a19.973,19.973,0,0,1-8.81,11.8c-.624.382-.052,1.367.574.983a21.151,21.151,0,0,0,9.333-12.483.57.57,0,0,0-1.1-.3" transform="translate(-1499.03 -508.435)" fill="#1e203d"/>
      <path id="Trazado_887452" data-name="Trazado 887452" d="M1988.71,686.886q15.589.355,31.126,1.775c.729.067.725-1.072,0-1.138q-15.527-1.421-31.126-1.775a.569.569,0,0,0,0,1.138" transform="translate(-1549.007 -534.277)" fill="#1e203d"/>
      <path id="Trazado_887453" data-name="Trazado 887453" d="M1994.386,723.413q15.588.355,31.126,1.775c.729.067.724-1.072,0-1.138q-15.528-1.421-31.126-1.775a.569.569,0,0,0,0,1.138" transform="translate(-1553.43 -562.737)" fill="#1e203d"/>
      <path id="Trazado_887454" data-name="Trazado 887454" d="M1981.985,673.063a38.9,38.9,0,0,1-1.45,14.957.57.57,0,0,0,1.1.3,39.766,39.766,0,0,0,1.49-15.26c-.07-.722-1.209-.73-1.138,0" transform="translate(-1543.045 -523.971)" fill="#1e203d"/>
      <path id="Trazado_887455" data-name="Trazado 887455" d="M941.7,1326.807a33.809,33.809,0,0,0-6.8-10.268,36.26,36.26,0,0,0-12.325-8.236,52.7,52.7,0,0,0-7.223-2.384c-2.367-.606-5.218-1.6-7.667-1.058a9.673,9.673,0,0,0-3.528,1.595,7.938,7.938,0,0,0-5.393-.784,10.058,10.058,0,0,0-5.431,3.338,12.361,12.361,0,0,0-2.692,6.344,16.293,16.293,0,0,0,3.212,12.042,13.925,13.925,0,0,0,4.518,3.869,12.213,12.213,0,0,0,6.136,1.279,18.779,18.779,0,0,1,4.069.113,7.784,7.784,0,0,1,3.1,1.447c1.819,1.335,3.331,3.022,5.294,4.169,3.82,2.231,9.035,2.885,13.093.892.021-.01.04-.023.06-.033a13.341,13.341,0,0,0,8.861-.778,6.974,6.974,0,0,0,3.89-4.424c.609-2.393-.249-4.925-1.166-7.121" transform="translate(-693.799 -1016.517)" fill="#ffa67d"/>
      <path id="Trazado_887456" data-name="Trazado 887456" d="M1019.741,1338.928a40.473,40.473,0,0,1,16.349,18.034,39.291,39.291,0,0,1,2.341,6.619.569.569,0,0,0,1.1-.3,41.518,41.518,0,0,0-13.323-21.182,40.92,40.92,0,0,0-5.889-4.151.57.57,0,0,0-.575.983" transform="translate(-794.282 -1042.352)" fill="#1e203d"/>
      <path id="Trazado_887457" data-name="Trazado 887457" d="M993.163,1353.96a31.877,31.877,0,0,1,14.353,16.2,31.45,31.45,0,0,1,1.71,6.05c.128.72,1.225.415,1.1-.3a32.965,32.965,0,0,0-11.264-19.322,32.154,32.154,0,0,0-5.322-3.613c-.644-.348-1.219.634-.574.983" transform="translate(-773.569 -1054.07)" fill="#1e203d"/>
      <path id="Trazado_887458" data-name="Trazado 887458" d="M1728.924,353.849l82.256,5.941a8.572,8.572,0,0,0,9.189-8.55V283.467a8.572,8.572,0,0,0-9.11-8.555L1729,280.085a8.572,8.572,0,0,0-8.034,8.555V345.3a8.572,8.572,0,0,0,7.955,8.55" transform="translate(-1340.834 -214.176)" fill="#fff"/>
      <path id="Trazado_887459" data-name="Trazado 887459" d="M1855.545,332.3V282.2a9.888,9.888,0,0,0-2.173-6.606,9.271,9.271,0,0,0-7.728-3.2q-1.348.083-2.7.17l-12.763.8-18.625,1.171-19.917,1.252-16.655,1.047-8.652.544-.4.025c-.727.046-.733,1.184,0,1.138l5.973-.376,14.918-.938,19.358-1.217,19.294-1.213,14.727-.926c2.129-.134,4.316-.429,6.454-.37a8.083,8.083,0,0,1,7.748,8.022c.009.94,0,1.881,0,2.821V332.3a.569.569,0,0,0,1.138,0" transform="translate(-1375.441 -212.212)" fill="#1e203d"/>
      <path id="Trazado_887460" data-name="Trazado 887460" d="M1829.26,370.45a13.309,13.309,0,1,0,1.114-18.789,13.309,13.309,0,0,0-1.114,18.789" transform="translate(-1422.589 -271.37)" fill="#f26a49"/>
      <path id="Trazado_887461" data-name="Trazado 887461" d="M1860.74,536.016a41.319,41.319,0,0,0-5.162-2.273c.039-.125.074-.251.114-.376.107-.341-.44-.453-.546-.113-.033.107-.064.215-.1.322-.308.012-.494.451-.174.579a64.978,64.978,0,0,0-2.317,10.908c-.081.686-.069,1.536.675,1.851a1.884,1.884,0,0,0,2.04-.772,25.484,25.484,0,0,0,3.158-4.278,27.018,27.018,0,0,0,2.473-5.506.316.316,0,0,0-.165-.344" transform="translate(-1443.332 -415.307)" fill="#f26a49"/>
      <path id="Trazado_887462" data-name="Trazado 887462" d="M1986.5,536.359a27.017,27.017,0,0,0,2.472,5.506,25.49,25.49,0,0,0,3.158,4.277,1.884,1.884,0,0,0,2.04.772c.744-.316.756-1.165.675-1.852a65.017,65.017,0,0,0-2.316-10.908c.32-.129.133-.567-.174-.58-.033-.107-.063-.215-.1-.322-.106-.341-.653-.229-.546.113.039.125.075.251.114.376a41.285,41.285,0,0,0-5.162,2.273.316.316,0,0,0-.164.344" transform="translate(-1547.704 -415.307)" fill="#f26a49"/>
      <path id="Trazado_887463" data-name="Trazado 887463" d="M1952.785,370.45a13.309,13.309,0,1,1-1.114-18.789,13.309,13.309,0,0,1,1.114,18.789" transform="translate(-1503.323 -271.37)" fill="#f26a49"/>
      <path id="Trazado_887464" data-name="Trazado 887464" d="M1876.046,381.3a24.279,24.279,0,1,1-24.279-24.279,24.279,24.279,0,0,1,24.279,24.279" transform="translate(-1423.825 -278.163)" fill="#f26a49"/>
      <path id="Trazado_887465" data-name="Trazado 887465" d="M1860.272,547.169a17.471,17.471,0,0,0,4.384,3.211.583.583,0,0,0,.779-.2.575.575,0,0,0-.2-.779,16.488,16.488,0,0,1-4.154-3.033c-.521-.516-1.326.289-.8.8" transform="translate(-1449.236 -425.552)" fill="#1e203d"/>
      <path id="Trazado_887466" data-name="Trazado 887466" d="M1992.568,548.342a28.868,28.868,0,0,0,4.519-3.346.569.569,0,0,0-.8-.8,27.291,27.291,0,0,1-4.288,3.168.569.569,0,0,0,.574.983" transform="translate(-1551.782 -423.862)" fill="#1e203d"/>
      <path id="Trazado_887467" data-name="Trazado 887467" d="M1884.269,392.779a21.025,21.025,0,1,1-21.025-21.025,21.025,21.025,0,0,1,21.025,21.025" transform="translate(-1435.302 -289.64)" fill="#fff"/>
      <path id="Trazado_887468" data-name="Trazado 887468" d="M1959.253,357.418a23.974,23.974,0,0,1,17.58,15.7c.232.691,1.332.395,1.1-.3a25.128,25.128,0,0,0-18.375-16.492c-.714-.155-1.019.941-.3,1.1" transform="translate(-1526.167 -277.604)" fill="#1e203d"/>
      <path id="Trazado_887469" data-name="Trazado 887469" d="M1848.942,356.321a25.127,25.127,0,0,0-18.375,16.492c-.234.7.865.994,1.1.3a23.974,23.974,0,0,1,17.58-15.7c.715-.155.412-1.253-.3-1.1" transform="translate(-1426.199 -277.604)" fill="#1e203d"/>
      <path id="Trazado_887470" data-name="Trazado 887470" d="M1895.568,437.979a.726.726,0,0,1-.222.554.792.792,0,0,1-.567.21h-8.284a.842.842,0,0,1-.863-.863,4.372,4.372,0,0,1,.024-.444,1.508,1.508,0,0,1,.124-.469,8.436,8.436,0,0,1,.838-1.516q.519-.752,1.11-1.455t1.233-1.356q.641-.653,1.232-1.245.592-.567,1.184-1.146t1.084-1.147a6.908,6.908,0,0,0,.986-1.467,4.052,4.052,0,0,0,.42-1.862,3.745,3.745,0,0,0-.814-2.466,3.012,3.012,0,0,0-2.466-.986,6.384,6.384,0,0,0-1.344.136,6.236,6.236,0,0,0-1.146.358,2.764,2.764,0,0,0-.321.16,2.274,2.274,0,0,0-.345.235,3.121,3.121,0,0,1-.395.209.924.924,0,0,1-.37.086.8.8,0,0,1-.53-.2.67.67,0,0,1-.234-.542,1.063,1.063,0,0,1,.567-.813,8.116,8.116,0,0,1,4.143-1.085,5.568,5.568,0,0,1,2.046.358,4.3,4.3,0,0,1,1.529.987,4.357,4.357,0,0,1,.95,1.479,4.933,4.933,0,0,1,.333,1.812,6.1,6.1,0,0,1-.493,2.589,7.562,7.562,0,0,1-1.282,1.923,14.824,14.824,0,0,1-1.085,1.2q-.519.506-.986.949-1.184,1.11-2.269,2.318a11.122,11.122,0,0,0-1.8,2.737h7.224a.769.769,0,0,1,.567.222.738.738,0,0,1,.222.542" transform="translate(-1469.125 -327.905)" fill="#1e203d"/>
      <path id="Trazado_887471" data-name="Trazado 887471" d="M1949.255,438.351a.747.747,0,0,1-.234.567.782.782,0,0,1-.555.222.809.809,0,0,1-.579-.222.746.746,0,0,1-.234-.567V435.17h-6.46a.788.788,0,0,1-.629-.271.917.917,0,0,1-.234-.616,1.249,1.249,0,0,1,.05-.235,2,2,0,0,1,.148-.382l4.833-12.107a1.191,1.191,0,0,1,.308-.333.642.642,0,0,1,.382-.136.79.79,0,0,1,.53.235.749.749,0,0,1,.259.579.993.993,0,0,1-.024.271l-4.611,11.466h5.449v-5.1a.8.8,0,0,1,.813-.813.76.76,0,0,1,.555.235.785.785,0,0,1,.234.579v5.1h1.282a.654.654,0,0,1,.505.234.775.775,0,0,1,.209.53.762.762,0,0,1-.209.542.67.67,0,0,1-.505.222h-1.282Z" transform="translate(-1511.741 -328.08)" fill="#1e203d"/>
      <path id="Trazado_887472" data-name="Trazado 887472" d="M376.913,623.894H301.225a9.617,9.617,0,0,1-9.617-9.617V563.485a9.617,9.617,0,0,1,10.519-9.575l75.688,7.133a9.617,9.617,0,0,1,8.715,9.575v43.659a9.617,9.617,0,0,1-9.617,9.617" transform="translate(-227.196 -431.528)" fill="#667cff"/>
      <path id="Trazado_887473" data-name="Trazado 887473" d="M452.3,623.619c-6.011.555-11.522-2.367-14.26-4.147a3.326,3.326,0,0,0-3.631,0c-2.739,1.781-8.25,4.7-14.26,4.147a3.336,3.336,0,0,0-3.633,3.1c-.421,6.05-.6,17.881,3.619,24.053,4.416,6.453,11.374,10.762,14.489,12.472a3.322,3.322,0,0,0,3.2,0c3.115-1.71,10.073-6.018,14.489-12.472,4.224-6.172,4.041-18,3.619-24.053a3.335,3.335,0,0,0-3.633-3.1" transform="translate(-324.355 -482.221)" fill="#fff"/>
      <path id="Trazado_887474" data-name="Trazado 887474" d="M466.529,649.108c-3.8.423-7.13-1.045-10.31-2.943a2.577,2.577,0,0,0-2.374-.2c-.632.275-1.2.733-1.808,1.069a17.411,17.411,0,0,1-5.154,1.932,12.1,12.1,0,0,1-3.224.189,3.015,3.015,0,0,0-2.316.485c-1.132.9-1.013,2.437-1.072,3.743a43.725,43.725,0,0,0,.51,9.755,18.529,18.529,0,0,0,1.409,4.626,16.884,16.884,0,0,0,3.118,4.266,33.151,33.151,0,0,0,7.6,5.865,4.289,4.289,0,0,0,1.724.7,3.285,3.285,0,0,0,1.938-.581,36,36,0,0,0,3.423-2.194c2.8-2.023,5.7-4.556,7.311-7.664a23.484,23.484,0,0,0,2.112-9.614c.081-1.584.079-3.172.018-4.756-.049-1.254.11-2.927-.818-3.9a2.593,2.593,0,0,0-2.087-.777c-.726.053-.732,1.192,0,1.138,1.813-.133,1.686,1.789,1.746,3.061.066,1.42.085,2.843.042,4.264a26.386,26.386,0,0,1-1.54,9.02c-1.213,3.017-3.794,5.471-6.3,7.45a34.654,34.654,0,0,1-3.518,2.428q-.6.362-1.209.7a1.721,1.721,0,0,1-1.909-.053,33.206,33.206,0,0,1-6.71-4.872,20.208,20.208,0,0,1-3.431-4.066,13.908,13.908,0,0,1-1.542-4,36.577,36.577,0,0,1-.8-9.2,24.187,24.187,0,0,1,.169-3.513c.17-1.009.978-1.269,1.883-1.191a13.263,13.263,0,0,0,2.927-.07,17.373,17.373,0,0,0,5.293-1.67,21,21,0,0,0,1.953-1.088,2.6,2.6,0,0,1,1.158-.548,2,2,0,0,1,1.243.471,16.574,16.574,0,0,0,10.546,2.878c.72-.08.728-1.219,0-1.138" transform="translate(-342.971 -503.127)" fill="#1e203d"/>
      <path id="Trazado_887475" data-name="Trazado 887475" d="M657.968,584.979l18.541-.088a2.908,2.908,0,0,1,2.327,4.671l-14.1,18.5-8.1-13.556Z" transform="translate(-511.594 -455.699)" fill="#667cff"/>
      <path id="Trazado_887476" data-name="Trazado 887476" d="M384.979,1164.649H510.963l-21.522-91.266a4.635,4.635,0,0,0-4.511-3.571H364.8a4.634,4.634,0,0,0-4.511,5.7l20.178,85.568a4.635,4.635,0,0,0,4.511,3.571" transform="translate(-280.61 -833.509)" fill="#bdbad4"/>
      <path id="Trazado_887477" data-name="Trazado 887477" d="M630.284,1241.756a16.728,16.728,0,0,0,10.887,11.562c4.656,1.537,10.348.576,12.966-3.939,2.683-4.628.9-10.446-2.332-14.294-3.438-4.1-9.143-6.849-14.531-5.614a9.38,9.38,0,0,0-5.993,4.287,10.881,10.881,0,0,0-1,8c.162.714,1.26.412,1.1-.3-.973-4.277.646-8.916,4.991-10.527,4.675-1.733,9.986.362,13.416,3.665,3.348,3.224,5.656,8.372,3.951,12.979-1.615,4.361-6.413,5.959-10.7,5.07a15.527,15.527,0,0,1-11.659-11.188c-.174-.711-1.271-.41-1.1.3" transform="translate(-490.805 -957.67)" fill="#1e203d"/>
      <path id="Trazado_887478" data-name="Trazado 887478" d="M814.169,1462.623h-122.7a3.857,3.857,0,0,0-3.857,3.857v.357a3.857,3.857,0,0,0,3.857,3.857h122.7a3.857,3.857,0,0,0,3.857-3.857v-.357a3.857,3.857,0,0,0-3.857-3.857" transform="translate(-535.733 -1139.554)" fill="#bdbad4"/>
      <path id="Trazado_887479" data-name="Trazado 887479" d="M927.7,1163.71l-2.23-9.455-5.284-22.407q-3.17-13.443-6.34-26.886l-5.294-22.451c-.749-3.179-1.44-6.379-2.25-9.543a5.327,5.327,0,0,0-2.7-3.424c-.648-.341-1.223.64-.574.982,1.87.985,2.165,2.682,2.591,4.487l1.456,6.173,5.057,21.446,6.267,26.573,5.5,23.323c.888,3.766,1.644,7.594,2.67,11.324.015.052.025.106.038.159.168.713,1.266.411,1.1-.3" transform="translate(-703.336 -833.245)" fill="#1e203d"/>
      <path id="Trazado_887480" data-name="Trazado 887480" d="M1015.3,1461.035a7.778,7.778,0,0,0-2.676,2.64,16.549,16.549,0,0,0-1.945,4.344.57.57,0,0,0,1.1.3,15.577,15.577,0,0,1,1.777-3.991,6.655,6.655,0,0,1,2.321-2.313c.644-.349.07-1.332-.575-.983" transform="translate(-787.412 -1138.259)" fill="#1e203d"/>
      <path id="Trazado_887481" data-name="Trazado 887481" d="M333.62,89.547,225.789,80.593A11.272,11.272,0,0,1,215.45,69.359V11.278A11.272,11.272,0,0,1,228.374.127L336.2,16.094a11.272,11.272,0,0,1,9.621,11.151V78.314A11.272,11.272,0,0,1,333.62,89.547" transform="translate(-167.86 -0.004)" fill="#f6de44"/>
      <path id="Trazado_887482" data-name="Trazado 887482" d="M341.975,84.525a22.724,22.724,0,0,0-.957,3.014,1.571,1.571,0,0,0,.66,1.671,8.921,8.921,0,0,1,1.864,13.145,1.567,1.567,0,0,0-.171,1.782,22.723,22.723,0,0,0,4.167,5.293,1.569,1.569,0,0,0,1.775.25,8.925,8.925,0,0,1,12.351,4.882,1.573,1.573,0,0,0,1.473,1.033,22.619,22.619,0,0,0,6.105-.854,1.558,1.558,0,0,0,1.131-1.372,8.92,8.92,0,0,1,10.574-8.072,1.557,1.557,0,0,0,1.622-.73,22.834,22.834,0,0,0,2.605-6.354,1.572,1.572,0,0,0-.661-1.672,8.925,8.925,0,0,1-1.866-13.148,1.568,1.568,0,0,0,.171-1.781,22.659,22.659,0,0,0-4.164-5.291,1.568,1.568,0,0,0-1.775-.25A8.915,8.915,0,0,1,364.53,71.19a1.574,1.574,0,0,0-1.474-1.033,22.718,22.718,0,0,0-6.108.852,1.558,1.558,0,0,0-1.133,1.372,8.926,8.926,0,0,1-10.573,8.076,1.557,1.557,0,0,0-1.623.732,22.871,22.871,0,0,0-1.644,3.336m16.149,6.384a5.348,5.348,0,1,1,3.007,6.939,5.348,5.348,0,0,1-3.007-6.939" transform="translate(-265.659 -54.661)" fill="#fff"/>
      <path id="Trazado_887483" data-name="Trazado 887483" d="M385.577,124.5a12.473,12.473,0,1,0,13.687-7.775,12.589,12.589,0,0,0-13.687,7.775c-.275.679.826.974,1.1.3a11.342,11.342,0,1,1,4.333,13.727,11.457,11.457,0,0,1-4.333-13.727c.264-.684-.836-.98-1.1-.3" transform="translate(-299.762 -90.819)" fill="#1e203d"/>
      <path id="Trazado_887484" data-name="Trazado 887484" d="M525.787,191.256a18.9,18.9,0,0,0,.371,2.6,1.306,1.306,0,0,0,1.1,1.013,7.414,7.414,0,0,1,6.141,9.168,1.3,1.3,0,0,0,.516,1.4,18.891,18.891,0,0,0,5.03,2.458,1.3,1.3,0,0,0,1.419-.454,7.418,7.418,0,0,1,11.009-.8,1.308,1.308,0,0,0,1.475.241,18.808,18.808,0,0,0,4.263-2.843,1.3,1.3,0,0,0,.352-1.436,7.413,7.413,0,0,1,5-9.86,1.294,1.294,0,0,0,.951-1.132,18.984,18.984,0,0,0-.343-5.7,1.307,1.307,0,0,0-1.1-1.013,7.418,7.418,0,0,1-6.143-9.17,1.3,1.3,0,0,0-.515-1.395,18.843,18.843,0,0,0-5.027-2.458,1.3,1.3,0,0,0-1.419.454,7.41,7.41,0,0,1-11.008.8,1.308,1.308,0,0,0-1.476-.241,18.887,18.887,0,0,0-4.265,2.843,1.3,1.3,0,0,0-.353,1.436,7.419,7.419,0,0,1-5,9.863,1.294,1.294,0,0,0-.951,1.134,19.019,19.019,0,0,0-.026,3.091m14.394-1.051a4.445,4.445,0,1,1,4.756,4.109,4.445,4.445,0,0,1-4.756-4.109" transform="translate(-409.61 -133.863)" fill="#fff"/>
      <path id="Trazado_887485" data-name="Trazado 887485" d="M563.863,217.456a10.464,10.464,0,1,0,7.732-10.831,10.6,10.6,0,0,0-7.732,10.831c.046.727,1.184.732,1.138,0a9.328,9.328,0,1,1,8.257,8.553A9.456,9.456,0,0,1,565,217.456c-.06-.725-1.2-.731-1.138,0" transform="translate(-439.299 -160.716)" fill="#1e203d"/>
      <path id="Trazado_887486" data-name="Trazado 887486" d="M717.793,336.364l3.644,20.982a3.34,3.34,0,0,1-4.845,3.529l-23.652-12.429,13.8-11.77Z" transform="translate(-539.881 -262.067)" fill="#f6de44"/>
    </g>
  </g>
</svg>
