<svg xmlns="http://www.w3.org/2000/svg" xmlns:xlink="http://www.w3.org/1999/xlink" width="1328" height="934.475" viewBox="0 0 1328 934.475">
  <defs>
    <clipPath id="clip-path">
      <rect id="Rectángulo_404638" data-name="Rectángulo 404638" width="1328" height="934.474" transform="translate(136 609.005)" fill="#ecf6ff"/>
    </clipPath>
    <linearGradient id="linear-gradient" x1="0.5" y1="0.066" x2="0.5" y2="0.894" gradientUnits="objectBoundingBox">
      <stop offset="0" stop-color="#fcf9e8" stop-opacity="0"/>
      <stop offset="0.163" stop-color="#fcf9e8" stop-opacity="0.678"/>
      <stop offset="0.33" stop-color="#fcf9e8"/>
      <stop offset="0.522" stop-color="#fcf9e8"/>
      <stop offset="0.729" stop-color="#fcf9e8"/>
      <stop offset="0.882" stop-color="#fcf9e8" stop-opacity="0.216"/>
      <stop offset="1" stop-color="#fcf9e8" stop-opacity="0"/>
    </linearGradient>
  </defs>
  <g id="Enmascarar_grupo_1099798" data-name="Enmascarar grupo 1099798" transform="translate(-136 -609.006)" clip-path="url(#clip-path)">
    <path id="Trazado_885555" data-name="Trazado 885555" d="M0,0H1376V1009.149H0Z" transform="translate(114 577.656)" fill="url(#linear-gradient)"/>
    <g id="Grupo_1107200" data-name="Grupo 1107200" transform="translate(722.958 684.88)" opacity="0.388">
      <g id="Elipse_11975" data-name="Elipse 11975" transform="translate(0 72.773)" fill="#fed8cc" stroke="#707070" stroke-width="1" opacity="0.503">
        <ellipse cx="229.569" cy="359.736" rx="229.569" ry="359.736" stroke="none"/>
        <ellipse cx="229.569" cy="359.736" rx="229.069" ry="359.236" fill="none"/>
      </g>
      <g id="Elipse_11976" data-name="Elipse 11976" transform="translate(487.401 217.733)" fill="#fed8cc" stroke="#707070" stroke-width="1" opacity="0.503">
        <ellipse cx="229.569" cy="359.736" rx="229.569" ry="359.736" stroke="none"/>
        <ellipse cx="229.569" cy="359.736" rx="229.069" ry="359.236" fill="none"/>
      </g>
      <g id="Elipse_11977" data-name="Elipse 11977" transform="translate(558.883 0)" fill="#fed8cc" stroke="#707070" stroke-width="1" opacity="0.426">
        <ellipse cx="120.915" cy="189.472" rx="120.915" ry="189.472" stroke="none"/>
        <ellipse cx="120.915" cy="189.472" rx="120.415" ry="188.972" fill="none"/>
      </g>
    </g>
    <g id="Grupo_1107201" data-name="Grupo 1107201" transform="translate(-282.272 237.418)" opacity="0.388">
      <g id="Trazado_885556" data-name="Trazado 885556" transform="translate(162.575 209.983)" fill="#feece6" opacity="0.503">
        <path d="M 272.9843444824219 855.0353393554688 C 263.6989135742188 855.0353393554688 254.3346710205078 854.2943725585938 245.1519012451172 852.8330078125 C 236.1013488769531 851.392822265625 227.0068969726562 849.2178344726562 218.1211242675781 846.3684692382812 C 209.34912109375 843.5557250976562 200.5695648193359 840.0182495117188 192.0262298583984 835.8543701171875 C 183.5770111083984 831.7362670898438 175.1578979492188 826.9075927734375 167.0027923583984 821.5025024414062 C 150.8590087890625 810.8026733398438 135.2871246337891 797.5579223632812 120.7196807861328 782.1360473632812 C 106.2862319946289 766.8561401367188 92.71289825439453 749.3070068359375 80.37678527832031 729.9761352539062 C 68.03800964355469 710.641357421875 56.83556747436523 689.3651733398438 47.08056640625 666.7387084960938 C 37.23078918457031 643.8922729492188 28.77056694030762 619.4678344726562 21.93523406982422 594.1439208984375 C 14.972900390625 568.3496704101562 9.625566482543945 541.3561401367188 6.041900157928467 513.9130249023438 C 2.364566802978516 485.7531433105469 0.500011146068573 456.7695922851562 0.500011146068573 427.7677001953125 C 0.500011146068573 398.7658081054688 2.364566802978516 369.7822570800781 6.041900157928467 341.6223754882812 C 9.625566482543945 314.1792602539062 14.972900390625 287.1856994628906 21.93523406982422 261.3914794921875 C 28.77056694030762 236.0675964355469 37.23078918457031 211.6431427001953 47.08056640625 188.7967071533203 C 56.83556747436523 166.1702575683594 68.03800964355469 144.8940277099609 80.37678527832031 125.5592575073242 C 92.71289825439453 106.2283706665039 106.2862319946289 88.67925262451172 120.7196807861328 73.39936828613281 C 135.2871246337891 57.97747802734375 150.8590087890625 44.73270034790039 167.0027923583984 34.03292083740234 C 175.1578979492188 28.62781143188477 183.5770111083984 23.79914474487305 192.0262298583984 19.68103408813477 C 200.5695648193359 15.51714420318604 209.34912109375 11.97970008850098 218.1211242675781 9.166922569274902 C 227.0068969726562 6.317589282989502 236.1013488769531 4.142589092254639 245.1519012451172 2.702366828918457 C 254.3346710205078 1.241033554077148 263.6989135742188 0.5000335574150085 272.9843444824219 0.5000335574150085 C 282.269775390625 0.5000335574150085 291.6340026855469 1.241033554077148 300.8168029785156 2.702366828918457 C 309.8673400878906 4.142589092254639 318.9617919921875 6.317589282989502 327.8475646972656 9.166922569274902 C 336.6195678710938 11.97970008850098 345.3991088867188 15.51714420318604 353.9424438476562 19.68103408813477 C 362.3916625976562 23.79914474487305 370.810791015625 28.62781143188477 378.9659118652344 34.03292083740234 C 395.1096801757812 44.73270034790039 410.6815795898438 57.97747802734375 425.2490234375 73.39936828613281 C 439.6824645996094 88.67925262451172 453.2557983398438 106.2283706665039 465.5918884277344 125.5592575073242 C 477.9306640625 144.8940277099609 489.1331176757812 166.1702575683594 498.8881225585938 188.7967071533203 C 508.7379150390625 211.6431427001953 517.1981201171875 236.0675964355469 524.033447265625 261.3914794921875 C 530.9957885742188 287.1856994628906 536.3431396484375 314.1792602539062 539.9268188476562 341.6223754882812 C 543.6041259765625 369.7822570800781 545.4686889648438 398.7658081054688 545.4686889648438 427.7677001953125 C 545.4686889648438 456.7695922851562 543.6041259765625 485.7531433105469 539.9268188476562 513.9130249023438 C 536.3431396484375 541.3561401367188 530.9957885742188 568.3496704101562 524.033447265625 594.1439208984375 C 517.1981201171875 619.4678344726562 508.7379150390625 643.8922729492188 498.8881225585938 666.7387084960938 C 489.1331176757812 689.3651733398438 477.9306640625 710.641357421875 465.5918884277344 729.9761352539062 C 453.2557983398438 749.3070068359375 439.6824645996094 766.8561401367188 425.2490234375 782.1360473632812 C 410.6815795898438 797.5579223632812 395.1096801757812 810.8026733398438 378.9659118652344 821.5025024414062 C 370.810791015625 826.9075927734375 362.3916625976562 831.7362670898438 353.9424438476562 835.8543701171875 C 345.3991088867188 840.0182495117188 336.6195678710938 843.5557250976562 327.8475646972656 846.3684692382812 C 318.9617919921875 849.2178344726562 309.8673400878906 851.392822265625 300.8168029785156 852.8330078125 C 291.6340026855469 854.2943725585938 282.269775390625 855.0353393554688 272.9843444824219 855.0353393554688 Z" stroke="none"/>
        <path d="M 272.9843444824219 1.00006103515625 C 263.7251281738281 1.00006103515625 254.3873596191406 1.73895263671875 245.23046875 3.1961669921875 C 236.2050170898438 4.63238525390625 227.1354675292969 6.80145263671875 218.2738037109375 9.64300537109375 C 209.5244445800781 12.448486328125 200.7672424316406 15.97705078125 192.2452392578125 20.130615234375 C 183.8157958984375 24.239013671875 175.4158935546875 29.05670166015625 167.2790222167969 34.44970703125 C 151.1670227050781 45.12847900390625 135.6244506835938 58.34857177734375 121.0831298828125 73.74267578125 C 106.6713562011719 88.99981689453125 93.1175537109375 106.5238037109375 80.79824829101562 125.8282470703125 C 68.47390747070312 145.1405029296875 57.28411865234375 166.3927001953125 47.5396728515625 188.9945678710938 C 37.6993408203125 211.8191528320312 29.24713134765625 236.2208251953125 22.41790771484375 261.5217895507812 C 15.46136474609375 287.2946166992188 10.11846923828125 314.2660522460938 6.53765869140625 341.68701171875 C 2.86309814453125 369.8257141113281 1 398.787353515625 1 427.7677001953125 C 1 456.748046875 2.86309814453125 485.7096862792969 6.53765869140625 513.848388671875 C 10.11846923828125 541.2694091796875 15.46136474609375 568.2408447265625 22.41790771484375 594.0135498046875 C 29.24713134765625 619.3145751953125 37.6993408203125 643.7162475585938 47.5396728515625 666.5408325195312 C 57.28411865234375 689.1427001953125 68.47390747070312 710.3948974609375 80.79824829101562 729.7071533203125 C 93.1175537109375 749.0115966796875 106.6713562011719 766.5355834960938 121.0831298828125 781.792724609375 C 135.6244506835938 797.1868286132812 151.1670227050781 810.4069213867188 167.2790222167969 821.085693359375 C 175.4158935546875 826.4786987304688 183.8157958984375 831.29638671875 192.2452392578125 835.40478515625 C 200.7672424316406 839.558349609375 209.5244445800781 843.0869140625 218.2738037109375 845.8923950195312 C 227.1354675292969 848.7339477539062 236.2050170898438 850.9030151367188 245.23046875 852.3392333984375 C 254.3873596191406 853.7964477539062 263.7251281738281 854.5353393554688 272.9843444824219 854.5353393554688 C 282.2435607910156 854.5353393554688 291.5813598632812 853.7964477539062 300.7382202148438 852.3392333984375 C 309.763671875 850.9030151367188 318.833251953125 848.7339477539062 327.6948852539062 845.8923950195312 C 336.4442138671875 843.0869140625 345.2014770507812 839.558349609375 353.7234497070312 835.40478515625 C 362.1528930664062 831.29638671875 370.5527954101562 826.4786987304688 378.689697265625 821.085693359375 C 394.8016967773438 810.4069213867188 410.34423828125 797.1868286132812 424.8855590820312 781.792724609375 C 439.29736328125 766.5355834960938 452.8511352539062 749.0115966796875 465.1704711914062 729.7071533203125 C 477.4947814941406 710.3948974609375 488.6845703125 689.1427001953125 498.4290161132812 666.5408325195312 C 508.2693481445312 643.7162475585938 516.7215576171875 619.3145751953125 523.55078125 594.0135498046875 C 530.50732421875 568.2408447265625 535.8502197265625 541.2694091796875 539.4310302734375 513.848388671875 C 543.1055908203125 485.7096862792969 544.9686889648438 456.748046875 544.9686889648438 427.7677001953125 C 544.9686889648438 398.787353515625 543.1055908203125 369.8257141113281 539.4310302734375 341.68701171875 C 535.8502197265625 314.2660522460938 530.50732421875 287.2946166992188 523.55078125 261.5217895507812 C 516.7215576171875 236.2208251953125 508.2693481445312 211.8191528320312 498.4290161132812 188.9945678710938 C 488.6845703125 166.3927001953125 477.4947814941406 145.1405029296875 465.1704711914062 125.8282470703125 C 452.8511352539062 106.5238037109375 439.29736328125 88.99981689453125 424.8855590820312 73.74267578125 C 410.34423828125 58.34857177734375 394.8016967773438 45.12847900390625 378.689697265625 34.44970703125 C 370.5527954101562 29.05670166015625 362.1528930664062 24.239013671875 353.7234497070312 20.130615234375 C 345.2014770507812 15.97705078125 336.4442138671875 12.448486328125 327.6948852539062 9.64300537109375 C 318.833251953125 6.80145263671875 309.763671875 4.63238525390625 300.7382202148438 3.1961669921875 C 291.5813598632812 1.73895263671875 282.2435607910156 1.00006103515625 272.9843444824219 1.00006103515625 M 272.9843444824219 6.103515625e-05 C 423.7494506835938 6.103515625e-05 545.9686889648438 191.5181274414062 545.9686889648438 427.7677001953125 C 545.9686889648438 664.0172729492188 423.7494506835938 855.5353393554688 272.9843444824219 855.5353393554688 C 122.21923828125 855.5353393554688 0 664.0172729492188 0 427.7677001953125 C 0 191.5181274414062 122.21923828125 6.103515625e-05 272.9843444824219 6.103515625e-05 Z" stroke="none" fill="#707070"/>
      </g>
      <g id="Elipse_11978" data-name="Elipse 11978" fill="#fed8cc" stroke="#707070" stroke-width="1" opacity="0.503">
        <ellipse cx="272.984" cy="427.768" rx="272.984" ry="427.768" stroke="none"/>
        <ellipse cx="272.984" cy="427.768" rx="272.484" ry="427.268" fill="none"/>
      </g>
      <g id="Trazado_885557" data-name="Trazado 885557" transform="translate(258.405 737.488)" fill="#fed8cc" opacity="0.426">
        <path d="M 143.7820281982422 450.1067504882812 C 134.0784759521484 450.1067504882812 124.3805847167969 448.5747375488281 114.9575805664062 445.5532531738281 C 105.7696914672852 442.6071472167969 96.73075103759766 438.210205078125 88.09180450439453 432.4845275878906 C 79.60385894775391 426.8589172363281 71.41603088378906 419.8946228027344 63.75563812255859 411.7851257324219 C 56.1636962890625 403.7480773925781 49.02380752563477 394.5169067382812 42.53430557250977 384.3479614257812 C 36.04225158691406 374.1750793457031 30.14786148071289 362.9803161621094 25.01486206054688 351.07470703125 C 19.83141708374023 339.0519104003906 15.3791389465332 326.198486328125 11.78186130523682 312.8713073730469 C 8.117527961730957 299.2958068847656 5.303139209747314 285.0888671875 3.416972637176514 270.6451416015625 C 1.481417059898376 255.8235321044922 0.5000281929969788 240.568359375 0.5000281929969788 225.3033599853516 C 0.5000281929969788 210.0383605957031 1.481417059898376 194.7832489013672 3.416972637176514 179.9616394042969 C 5.303139209747314 165.5179138183594 8.117527961730957 151.3109741210938 11.78186130523682 137.7354125976562 C 15.3791389465332 124.4083023071289 19.83141708374023 111.554801940918 25.01486206054688 99.53208160400391 C 30.14786148071289 87.62641906738281 36.04225158691406 76.43169403076172 42.53430557250977 66.25880432128906 C 49.02380752563477 56.08985900878906 56.1636962890625 46.85869216918945 63.75563812255859 38.82163619995117 C 71.41603088378906 30.71213722229004 79.60385894775391 23.74785995483398 88.09180450439453 18.12224960327148 C 96.73075103759766 12.39658260345459 105.7696914672852 7.999637603759766 114.9575805664062 5.053526878356934 C 124.3805847167969 2.032026767730713 134.0784759521484 0.5000266432762146 143.7820281982422 0.5000266432762146 C 153.4855804443359 0.5000266432762146 163.1834716796875 2.032026767730713 172.6064758300781 5.053526878356934 C 181.7943572998047 7.999637603759766 190.8333129882812 12.39658260345459 199.4722442626953 18.12224960327148 C 207.9601898193359 23.74785995483398 216.1480865478516 30.71213722229004 223.8084716796875 38.82163619995117 C 231.4003601074219 46.85869216918945 238.5402526855469 56.08985900878906 245.0298004150391 66.25880432128906 C 251.5218658447266 76.43169403076172 257.4161987304688 87.62641906738281 262.5491943359375 99.53208160400391 C 267.7326965332031 111.554801940918 272.1849060058594 124.4083023071289 275.7822570800781 137.7354125976562 C 279.4465942382812 151.3109741210938 282.260986328125 165.5179138183594 284.1471252441406 179.9616394042969 C 286.0827026367188 194.7832489013672 287.0640869140625 210.0383605957031 287.0640869140625 225.3033599853516 C 287.0640869140625 240.568359375 286.0827026367188 255.8235321044922 284.1471252441406 270.6451416015625 C 282.260986328125 285.0888671875 279.4465942382812 299.2958068847656 275.7822570800781 312.8713073730469 C 272.1849060058594 326.198486328125 267.7326965332031 339.0519104003906 262.5491943359375 351.07470703125 C 257.4161987304688 362.9803161621094 251.5218658447266 374.1750793457031 245.0298004150391 384.3479614257812 C 238.5402526855469 394.5169067382812 231.4003601074219 403.7480773925781 223.8084716796875 411.7851257324219 C 216.1480865478516 419.8946228027344 207.9601898193359 426.8589172363281 199.4722442626953 432.4845275878906 C 190.8333129882812 438.210205078125 181.7943572998047 442.6071472167969 172.6064758300781 445.5532531738281 C 163.1834716796875 448.5747375488281 153.4855804443359 450.1067504882812 143.7820281982422 450.1067504882812 Z" stroke="none"/>
        <path d="M 143.7820281982422 0.999969482421875 C 134.1303558349609 0.999969482421875 124.4838104248047 2.523956298828125 115.1102447509766 5.529571533203125 C 105.9660797119141 8.461700439453125 96.96868896484375 12.838623046875 88.36802673339844 18.53897094726562 C 79.911865234375 24.14352416992188 71.75331115722656 31.0831298828125 64.11907958984375 39.16497802734375 C 56.54875183105469 47.17913818359375 49.42835998535156 56.38531494140625 42.95574951171875 66.52774047851562 C 36.47808837890625 76.67807006835938 30.59637451171875 87.84896850585938 25.47396850585938 99.73004150390625 C 20.2999267578125 111.7308654785156 15.85565185546875 124.5615844726562 12.2645263671875 137.8656921386719 C 8.605987548828125 151.4197998046875 5.7960205078125 165.6047058105469 3.912689208984375 180.0263671875 C 1.97998046875 194.8265838623047 0.999969482421875 210.0599670410156 0.999969482421875 225.3033599853516 C 0.999969482421875 240.5467529296875 1.97998046875 255.7801361083984 3.912689208984375 270.5803527832031 C 5.7960205078125 285.0020751953125 8.605987548828125 299.1869506835938 12.2645263671875 312.7410278320312 C 15.85565185546875 326.0451354980469 20.2999267578125 338.8758544921875 25.47396850585938 350.876708984375 C 30.59637451171875 362.7577514648438 36.47808837890625 373.9286499023438 42.95574951171875 384.0789184570312 C 49.42835998535156 394.2213745117188 56.54875183105469 403.4275817871094 64.11907958984375 411.4417419433594 C 71.75331115722656 419.5235900878906 79.911865234375 426.463134765625 88.36802673339844 432.0676879882812 C 96.96868896484375 437.7680358886719 105.9660797119141 442.14501953125 115.1102447509766 445.0770874023438 C 124.4838104248047 448.0827026367188 134.1303558349609 449.606689453125 143.7820281982422 449.606689453125 C 153.4337005615234 449.606689453125 163.0802612304688 448.0827026367188 172.4537963867188 445.0770874023438 C 181.5979614257812 442.14501953125 190.5953674316406 437.7680358886719 199.1960296630859 432.0676879882812 C 207.6521911621094 426.463134765625 215.8107604980469 419.5235900878906 223.4449768066406 411.4417419433594 C 231.0153045654297 403.4275817871094 238.1356964111328 394.2213745117188 244.6083068847656 384.0789184570312 C 251.0859222412109 373.9286499023438 256.9676513671875 362.7577514648438 262.0900268554688 350.876708984375 C 267.2640991210938 338.8758544921875 271.7083740234375 326.0451354980469 275.2994689941406 312.7410278320312 C 278.9580383300781 299.1869506835938 281.7679748535156 285.0020751953125 283.6513061523438 270.5803527832031 C 285.5840148925781 255.7801361083984 286.5640258789062 240.5467529296875 286.5640258789062 225.3033599853516 C 286.5640258789062 210.0599670410156 285.5840148925781 194.8265838623047 283.6513061523438 180.0263671875 C 281.7679748535156 165.6047058105469 278.9580383300781 151.4197998046875 275.2994689941406 137.8656921386719 C 271.7083740234375 124.5615844726562 267.2640991210938 111.7308654785156 262.0900268554688 99.73004150390625 C 256.9676513671875 87.84896850585938 251.0859222412109 76.67807006835938 244.6083068847656 66.52774047851562 C 238.1356964111328 56.38531494140625 231.0153045654297 47.17913818359375 223.4449768066406 39.16497802734375 C 215.8107604980469 31.0831298828125 207.6521911621094 24.14352416992188 199.1960296630859 18.53897094726562 C 190.5953674316406 12.838623046875 181.5979614257812 8.461700439453125 172.4537963867188 5.529571533203125 C 163.0802612304688 2.523956298828125 153.4337005615234 0.999969482421875 143.7820281982422 0.999969482421875 M 143.7820281982422 -3.0517578125e-05 C 223.1906433105469 -3.0517578125e-05 287.5640258789062 100.8717346191406 287.5640258789062 225.3033599853516 C 287.5640258789062 349.7350158691406 223.1906433105469 450.606689453125 143.7820281982422 450.606689453125 C 64.3734130859375 450.606689453125 -3.0517578125e-05 349.7350158691406 -3.0517578125e-05 225.3033599853516 C -3.0517578125e-05 100.8717346191406 64.3734130859375 -3.0517578125e-05 143.7820281982422 -3.0517578125e-05 Z" stroke="none" fill="#707070"/>
      </g>
    </g>
  </g>
</svg>
