<svg xmlns="http://www.w3.org/2000/svg" width="90.914" height="90.914" viewBox="0 0 90.914 90.914">
  <g id="Grupo_1107196" data-name="Grupo 1107196" transform="translate(-216.159 -5894.993)">
    <g id="Grupo_1107155" data-name="Grupo 1107155" transform="translate(216.159 5894.993)">
      <path id="Trazado_874924" data-name="Trazado 874924" d="M45.457,0A45.457,45.457,0,0,1,90.914,45.457h0A45.457,45.457,0,0,1,0,45.457H0A45.457,45.457,0,0,1,45.457,0Z" transform="translate(0 0)" fill="#f6de44" opacity="0.859"/>
      <rect id="Rectángulo_400907" data-name="Rectángulo 400907" width="90.914" height="90.914" rx="45.457" transform="translate(0 0)" fill="none"/>
    </g>
    <g id="XMLID_74_" transform="translate(235.268 5896.14)">
      <g id="XMLID_1598_" transform="translate(1.029 33.141)">
        <path id="XMLID_1440_" d="M214.662,147.476h-6.943a12.306,12.306,0,0,0,0,24.612h3.067l3.877,3.877v-3.877a12.306,12.306,0,1,0,0-24.612Z" transform="translate(-176.33 -147.476)" fill="#ffcd69"/>
        <path id="XMLID_1378_" d="M22.306,205.185h6.943a12.306,12.306,0,1,1,0,24.612H26.182l-3.877,3.877V229.8a12.306,12.306,0,1,1,0-24.612Z" transform="translate(-10 -199.245)" fill="#fff"/>
        <g id="XMLID_1550_" transform="translate(5.485 16.206)">
          <circle id="XMLID_1518_" cx="2.058" cy="2.058" r="2.058" transform="translate(0)" fill="#33d6f5"/>
          <circle id="XMLID_1514_" cx="2.058" cy="2.058" r="2.058" transform="translate(8.234)" fill="#33d6f5"/>
          <circle id="XMLID_1510_" cx="2.058" cy="2.058" r="2.058" transform="translate(16.468)" fill="#33d6f5"/>
        </g>
      </g>
      <g id="XMLID_838_" transform="translate(0 20.024)">
        <path id="XMLID_905_" d="M39.362,137.476H32.419A13.319,13.319,0,0,0,21.3,143.454q-.5-.038-1.018-.039H13.335a13.249,13.249,0,0,0-5.265,1.08,1.029,1.029,0,1,0,.813,1.891,11.2,11.2,0,0,1,4.451-.912h6.943a11.277,11.277,0,0,1,0,22.553H17.212a1.029,1.029,0,0,0-.728.3l-2.12,2.12v-1.392a1.029,1.029,0,0,0-1.029-1.029A11.283,11.283,0,0,1,2.981,152.276a1.029,1.029,0,1,0-1.889-.818,13.342,13.342,0,0,0,11.214,18.589v2.887a1.029,1.029,0,0,0,1.757.728l3.575-3.575h2.64a13.333,13.333,0,0,0,11.117-5.98c.34.026.682.04,1.023.04h2.64l3.575,3.575a1.029,1.029,0,0,0,1.757-.728v-2.887a13.335,13.335,0,0,0-1.029-26.631Zm0,24.612a1.029,1.029,0,0,0-1.029,1.029v1.392l-2.12-2.12a1.03,1.03,0,0,0-.728-.3H32.5a13.333,13.333,0,0,0-8.934-18.262,11.187,11.187,0,0,1,8.855-4.291h6.943a11.277,11.277,0,0,1,0,22.553Z" transform="translate(0 -125.387)"/>
        <path id="XMLID_906_" d="M304.689,63.973a1.029,1.029,0,1,0,1.456,1.456,4.055,4.055,0,0,1,5.728,0,1.029,1.029,0,1,0,1.456-1.456A6.116,6.116,0,0,0,304.689,63.973Z" transform="translate(-273.059 -57.847)"/>
        <path id="XMLID_907_" d="M275.423,24.548a8.438,8.438,0,0,1,11.933,0,1.029,1.029,0,1,0,1.456-1.456,10.508,10.508,0,0,0-14.844,0,1.029,1.029,0,1,0,1.456,1.456Z" transform="translate(-245.5 -20.023)"/>
        <path id="XMLID_908_" d="M119.275,121.683a1.029,1.029,0,0,0,1.456,1.456,4.055,4.055,0,0,1,5.728,0,1.029,1.029,0,1,0,1.456-1.456A6.116,6.116,0,0,0,119.275,121.683Z" transform="translate(-106.728 -109.617)"/>
        <path id="XMLID_909_" d="M90.009,82.257a8.448,8.448,0,0,1,11.933,0A1.029,1.029,0,0,0,103.4,80.8a10.508,10.508,0,0,0-14.844,0,1.029,1.029,0,0,0,1.456,1.456Z" transform="translate(-79.169 -71.793)"/>
        <path id="XMLID_912_" d="M56.381,301.11a3.088,3.088,0,1,0-3.088-3.088A3.091,3.091,0,0,0,56.381,301.11Zm0-4.117a1.029,1.029,0,1,1-1.029,1.029A1.03,1.03,0,0,1,56.381,296.993Z" transform="translate(-47.808 -266.64)"/>
        <path id="XMLID_915_" d="M136.381,301.11a3.088,3.088,0,1,0-3.088-3.088A3.091,3.091,0,0,0,136.381,301.11Zm0-4.117a1.029,1.029,0,1,1-1.029,1.029A1.03,1.03,0,0,1,136.381,296.993Z" transform="translate(-119.574 -266.64)"/>
        <path id="XMLID_918_" d="M219.468,298.023a3.088,3.088,0,1,0-3.088,3.088A3.091,3.091,0,0,0,219.468,298.023Zm-4.117,0a1.029,1.029,0,1,1,1.029,1.029A1.03,1.03,0,0,1,215.351,298.023Z" transform="translate(-191.34 -266.64)"/>
        <path id="XMLID_919_" d="M36.149,232.164a1.031,1.031,0,1,0-.728-.3A1.036,1.036,0,0,0,36.149,232.164Z" transform="translate(-31.505 -208.484)"/>
      </g>
    </g>
  </g>
</svg>
