<svg xmlns="http://www.w3.org/2000/svg" width="81" height="98" viewBox="0 0 81 98">
  <g id="Grupo_1107764" data-name="Grupo 1107764" transform="translate(-859.051 -805)">
    <g id="reshot-icon-letter-FX85WCYS4J" transform="translate(807.016 815.044)">
      <path id="Trazado_887752" data-name="Trazado 887752" d="M88.969,89.94H127.98a2.232,2.232,0,0,0,2.232-2.232V10.984a2.232,2.232,0,0,0-2.232-2.232H70.945a2.232,2.232,0,0,0-2.232,2.232v58.7Z" transform="translate(-7.315 -7.315)" fill="#f2f2f2"/>
      <g id="Grupo_1107762" data-name="Grupo 1107762" transform="translate(61.398 1.437)">
        <path id="Trazado_887753" data-name="Trazado 887753" d="M404.332,8.752H399.35a2.232,2.232,0,0,1,2.232,2.232V87.708a2.232,2.232,0,0,1-2.232,2.232h4.981a2.232,2.232,0,0,0,2.232-2.232V10.984A2.232,2.232,0,0,0,404.332,8.752Z" transform="translate(-345.065 -8.752)" fill="#e6e6e6"/>
        <path id="Trazado_887754" data-name="Trazado 887754" d="M88.969,381.725v18.406L68.713,379.875H87.119A1.85,1.85,0,0,1,88.969,381.725Z" transform="translate(-68.713 -318.942)" fill="#e6e6e6"/>
      </g>
      <path id="Trazado_887755" data-name="Trazado 887755" d="M161.746,379.875v15.275l4.982,4.982V381.8a1.93,1.93,0,0,0-1.93-1.93h-3.052Z" transform="translate(-85.073 -317.505)" fill="#ccc"/>
      <path id="Trazado_887756" data-name="Trazado 887756" d="M70.945,8.752a2.232,2.232,0,0,0-2.232,2.232v3.161h61.5V10.984a2.232,2.232,0,0,0-2.232-2.232Z" transform="translate(-7.315 -7.315)" fill="#fee570"/>
      <circle id="Elipse_11991" data-name="Elipse 11991" cx="9.771" cy="9.771" r="9.771" transform="translate(68.462 9.999)" fill="#fc3f49"/>
      <path id="Trazado_887757" data-name="Trazado 887757" d="M161.587,90.232a1.6,1.6,0,0,1,.126-.632,1.565,1.565,0,0,1,.349-.515,1.67,1.67,0,0,1,.521-.344,1.653,1.653,0,0,1,.652-.126,1.63,1.63,0,0,1,.642.126,1.67,1.67,0,0,1,.521.344,1.641,1.641,0,0,1,.354.515,1.6,1.6,0,0,1,0,1.269,1.649,1.649,0,0,1-.354.511,1.6,1.6,0,0,1-.521.339,1.69,1.69,0,0,1-.642.121,1.712,1.712,0,0,1-.652-.121,1.6,1.6,0,0,1-.521-.339,1.58,1.58,0,0,1-.475-1.148Zm2.983-13.205v5.784a17.139,17.139,0,0,1-.1,1.82q-.1.9-.268,1.87h-1.881q-.172-.971-.268-1.87a17.139,17.139,0,0,1-.1-1.82V77.027Z" transform="translate(-84.941 -64.38)" fill="#fff"/>
      <path id="Trazado_887758" data-name="Trazado 887758" d="M401.583,10.985v3.161h4.982V10.985a2.223,2.223,0,0,0-.51-1.42q-.068-.083-.144-.158a2.225,2.225,0,0,0-1.578-.654h-4.981A2.232,2.232,0,0,1,401.583,10.985Z" transform="translate(-283.668 -7.316)" fill="#fed301"/>
      <g id="Grupo_1107763" data-name="Grupo 1107763" transform="translate(59.961)">
        <path id="Trazado_887759" data-name="Trazado 887759" d="M145.777,207.9H99.315a1.437,1.437,0,1,0,0,2.874h46.462a1.437,1.437,0,1,0,0-2.874Z" transform="translate(-91.653 -173.769)" fill="#232323"/>
        <path id="Trazado_887760" data-name="Trazado 887760" d="M283.3,145.91H263.855a1.437,1.437,0,1,0,0,2.874H283.3a1.437,1.437,0,0,0,0-2.874Z" transform="translate(-229.178 -121.954)" fill="#232323"/>
        <path id="Trazado_887761" data-name="Trazado 887761" d="M145.777,269.894H99.315a1.437,1.437,0,1,0,0,2.874h46.462a1.437,1.437,0,1,0,0-2.874Z" transform="translate(-91.653 -225.582)" fill="#232323"/>
        <path id="Trazado_887762" data-name="Trazado 887762" d="M352.228,331.885h-5.907a1.437,1.437,0,1,0,0,2.874h5.907a1.437,1.437,0,1,0,0-2.874Z" transform="translate(-298.104 -277.395)" fill="#232323"/>
        <path id="Trazado_887763" data-name="Trazado 887763" d="M135.079,333.322a1.437,1.437,0,0,0-1.437-1.437H99.315a1.437,1.437,0,0,0,0,2.874h34.328A1.437,1.437,0,0,0,135.079,333.322Z" transform="translate(-91.653 -277.395)" fill="#232323"/>
        <path id="Trazado_887764" data-name="Trazado 887764" d="M288.693,412.1l5.458-2.649.509,2.362a1.437,1.437,0,0,0,2,1l7.472-3.427a1.437,1.437,0,0,0-1.2-2.612l-5.845,2.681-.517-2.4a1.437,1.437,0,0,0-2.032-.99l-7.1,3.449a1.437,1.437,0,1,0,1.256,2.585Z" transform="translate(-249.413 -339.277)" fill="#232323"/>
        <path id="Trazado_887765" data-name="Trazado 887765" d="M114.2,74.567A11.208,11.208,0,1,0,102.99,63.358,11.221,11.221,0,0,0,114.2,74.567Zm0-19.543a8.334,8.334,0,1,1-8.334,8.334A8.344,8.344,0,0,1,114.2,55.024Z" transform="translate(-95.925 -43.588)" fill="#232323"/>
        <path id="Trazado_887766" data-name="Trazado 887766" d="M122.9,18.142a1.437,1.437,0,0,0,1.437-1.437V3.669A3.673,3.673,0,0,0,120.665,0H63.63a3.673,3.673,0,0,0-3.669,3.669v58.7c0,.016,0,.032,0,.048s0,.032,0,.048a1.491,1.491,0,0,0,.023.182v0a1.452,1.452,0,0,0,.049.179l.016.045a1.425,1.425,0,0,0,.071.162l0,.01a1.424,1.424,0,0,0,.1.157l.029.039a1.406,1.406,0,0,0,.125.145L80.638,83.642c.034.034.069.066.106.1.019.015.039.029.058.043s.037.028.056.041.046.027.068.041.035.022.053.031.046.022.07.033.038.019.057.027.046.016.068.024.042.016.064.023.044.011.066.017.046.013.07.017.046.007.069.01.046.008.07.01c.039,0,.078.005.117.006h39.034a3.673,3.673,0,0,0,3.669-3.669V22.772a1.437,1.437,0,1,0-2.874,0V80.393a.8.8,0,0,1-.8.8H83.091V72.723a1.437,1.437,0,0,0-2.874,0v6.433l-15.35-15.35H79.8a.414.414,0,0,1,.413.413v2.508a1.437,1.437,0,1,0,2.874,0V64.219A3.291,3.291,0,0,0,79.8,60.932H62.835V3.669a.8.8,0,0,1,.8-.8h57.035a.8.8,0,0,1,.8.8V16.7A1.437,1.437,0,0,0,122.9,18.142Z" transform="translate(-59.961)" fill="#232323"/>
      </g>
    </g>
    <rect id="Rectángulo_404864" data-name="Rectángulo 404864" width="81" height="98" transform="translate(859.051 805)" fill="none"/>
  </g>
</svg>
