<svg id="Grupo_1107827" data-name="Grupo 1107827" xmlns="http://www.w3.org/2000/svg" xmlns:xlink="http://www.w3.org/1999/xlink" width="207.454" height="131.361" viewBox="0 0 207.454 131.361">
  <defs>
    <clipPath id="clip-path">
      <rect id="Rectángulo_405040" data-name="Rectángulo 405040" width="207.454" height="131.361" fill="none"/>
    </clipPath>
    <clipPath id="clip-path-2">
      <rect id="Rectángulo_404930" data-name="Rectángulo 404930" width="207.455" height="131.361" fill="none"/>
    </clipPath>
    <clipPath id="clip-path-11">
      <rect id="Rectángulo_405034" data-name="Rectángulo 405034" width="66.025" height="66.025" fill="none"/>
    </clipPath>
    <clipPath id="clip-path-13">
      <rect id="Rectángulo_405037" data-name="Rectángulo 405037" width="21.123" height="29.992" fill="none"/>
    </clipPath>
  </defs>
  <g id="Grupo_1107826" data-name="Grupo 1107826" clip-path="url(#clip-path)">
    <rect id="Rectángulo_404929" data-name="Rectángulo 404929" width="112.902" height="73.741" transform="translate(38.956 57.342)" fill="#fff"/>
    <g id="Grupo_1107799" data-name="Grupo 1107799" transform="translate(0 0)">
      <g id="Grupo_1107798" data-name="Grupo 1107798" clip-path="url(#clip-path-2)">
        <path id="Trazado_887992" data-name="Trazado 887992" d="M716.162,1071.509v70.274H831.955v-70.274a4.942,4.942,0,0,0-4.927-4.928H721.09a4.942,4.942,0,0,0-4.928,4.928m2.642-.481a1.719,1.719,0,0,1,1.725-1.712H827.311a1.719,1.719,0,0,1,1.725,1.712V1140.1H718.8Z" transform="translate(-678.64 -1010.7)" fill="#2d3047"/>
        <path id="Trazado_887993" data-name="Trazado 887993" d="M1811.918,1084.638a.544.544,0,1,1-.544-.544.544.544,0,0,1,.544.544" transform="translate(-1715.957 -1027.295)" fill="#4b4045"/>
        <path id="Trazado_887994" data-name="Trazado 887994" d="M628.053,2433.6a.566.566,0,0,1,.566.567v0c0,.233.321.422.717.422h15.032c.4,0,.717-.189.717-.422v0a.566.566,0,0,1,.567-.567h55.343l.044,2.192c0,.92-1.265,1.666-2.826,1.666H574.2c-1.561,0-2.827-.746-2.827-1.666l-.044-2.192Z" transform="translate(-541.395 -2306.1)" fill="#2d3047"/>
      </g>
    </g>
    <g id="Grupo_1107801" data-name="Grupo 1107801" transform="translate(0 0)">
      <g id="Grupo_1107800" data-name="Grupo 1107800" clip-path="url(#clip-path-2)">
        <path id="Trazado_887995" data-name="Trazado 887995" d="M37.6,1553.136q.031.34.032.688a7.429,7.429,0,1,1-13.008-4.9l-6.315-4.588-.4.556a15.22,15.22,0,0,0-1.708,14.853,15.2,15.2,0,0,0,29.209-5.917v-.688Z" transform="translate(-14.214 -1463.42)" fill="#2d3047"/>
        <path id="Trazado_887996" data-name="Trazado 887996" d="M15.988,1549.957a15.922,15.922,0,0,1-8.94-2.731,16.03,16.03,0,0,1-5.791-7.033,15.743,15.743,0,0,1,1.8-15.621l.866-1.192,7.648,5.557-.57.648a6.643,6.643,0,1,0,11.632,4.385c0-.2-.009-.412-.028-.616l-.079-.858h9.452v1.474a15.921,15.921,0,0,1-2.731,8.94,16.029,16.029,0,0,1-7.033,5.791,15.889,15.889,0,0,1-6.224,1.257m-11.72-24.382a13.8,13.8,0,0,0-2.7,8.394,14.348,14.348,0,0,0,2.462,8.06,14.458,14.458,0,0,0,6.343,5.223,14.4,14.4,0,0,0,13.671-1.329,14.457,14.457,0,0,0,5.223-6.343,14.321,14.321,0,0,0,1.133-5.513H24.2a8.215,8.215,0,1,1-14.917-4.847Z" transform="translate(0 -1443.566)" fill="#ffcd8b"/>
        <path id="Trazado_887997" data-name="Trazado 887997" d="M75.4,1443.12q.348,0,.688.031v-7.8H75.4a14.762,14.762,0,0,0-12.3,6.266l-.4.556,6.314,4.587a7.425,7.425,0,0,1,6.389-3.637" transform="translate(-59.414 -1360.145)" fill="#fe663f"/>
        <path id="Trazado_887998" data-name="Trazado 887998" d="M49.393,1433.685l-7.647-5.556.866-1.192a15.548,15.548,0,0,1,12.934-6.59H57.02v9.452l-.858-.079c-.2-.019-.411-.028-.616-.028a6.639,6.639,0,0,0-5.714,3.253Zm-5.451-5.9,5.017,3.645a8.205,8.205,0,0,1,6.49-3.306v-6.2a13.963,13.963,0,0,0-11.507,5.863" transform="translate(-39.559 -1345.931)" fill="#ffcd8b"/>
      </g>
    </g>
    <g id="Grupo_1107803" data-name="Grupo 1107803" transform="translate(0 0)">
      <g id="Grupo_1107802" data-name="Grupo 1107802" clip-path="url(#clip-path-2)">
        <path id="Trazado_887999" data-name="Trazado 887999" d="M987.531,1595.661a.078.078,0,1,1,0-.157l87.064-.179h0a.079.079,0,0,1,0,.157l-87.065.179Z" transform="translate(-935.717 -1511.742)" fill="#bdbdbd"/>
        <path id="Trazado_888000" data-name="Trazado 888000" d="M988,1822.992a.079.079,0,0,1,0-.157l87.065-.179h0a.079.079,0,0,1,0,.157l-87.065.179Z" transform="translate(-936.159 -1727.162)" fill="#bdbdbd"/>
        <path id="Trazado_888001" data-name="Trazado 888001" d="M988.464,2050.323a.079.079,0,0,1,0-.157l87.065-.179h0a.079.079,0,0,1,0,.157l-87.065.179Z" transform="translate(-936.601 -1942.583)" fill="#bdbdbd"/>
        <path id="Trazado_888002" data-name="Trazado 888002" d="M1149.5,1792.477a.126.126,0,0,1-.087-.218l14.642-13.927a.126.126,0,1,1,.174.183l-14.641,13.927a.126.126,0,0,1-.087.035" transform="translate(-1089.151 -1685.127)" fill="#2d3047"/>
        <path id="Trazado_888003" data-name="Trazado 888003" d="M1813.788,1697.9a.126.126,0,0,1-.072-.231l16.435-11.278a.127.127,0,1,1,.143.209l-16.435,11.278a.127.127,0,0,1-.072.022" transform="translate(-1718.639 -1598.015)" fill="#2d3047"/>
        <path id="Trazado_888004" data-name="Trazado 888004" d="M1449.116,1785.009a.125.125,0,0,1-.039-.006l-20.162-6.461a.126.126,0,1,1,.077-.241l20.163,6.461a.127.127,0,0,1-.039.247" transform="translate(-1353.967 -1685.125)" fill="#2d3047"/>
        <path id="Trazado_888005" data-name="Trazado 888005" d="M1773.395,1862.9a2.229,2.229,0,1,1-1.92-2.5,2.229,2.229,0,0,1,1.92,2.5" transform="translate(-1676.276 -1762.908)" fill="#fe663f"/>
        <path id="Trazado_888006" data-name="Trazado 888006" d="M1759.342,1853.647a2.92,2.92,0,0,1-.381-.025,2.873,2.873,0,1,1,.381.025m-.007-4.458a1.574,1.574,0,1,0,1.562,1.778h0a1.576,1.576,0,0,0-1.356-1.765,1.6,1.6,0,0,0-.205-.013" transform="translate(-1664.426 -1751.064)" fill="#fe663f"/>
        <path id="Trazado_888007" data-name="Trazado 888007" d="M1111.047,2003.087a2.229,2.229,0,1,1-1.92-2.5,2.228,2.228,0,0,1,1.92,2.5" transform="translate(-1048.63 -1895.753)" fill="#fe663f"/>
        <path id="Trazado_888008" data-name="Trazado 888008" d="M1096.993,1993.834a2.917,2.917,0,0,1-.38-.025,2.873,2.873,0,1,1,.38.025m-.009-4.458a1.579,1.579,0,1,0,.208.014,1.609,1.609,0,0,0-.208-.014" transform="translate(-1036.78 -1883.906)" fill="#fe663f"/>
        <path id="Trazado_888009" data-name="Trazado 888009" d="M2127.47,1593.421a.126.126,0,0,1-.031-.249l20.233-5.153a.126.126,0,1,1,.063.245l-20.233,5.153a.127.127,0,0,1-.031,0" transform="translate(-2015.886 -1504.814)" fill="#2d3047"/>
        <path id="Trazado_888010" data-name="Trazado 888010" d="M2095.083,1646.126a2.229,2.229,0,1,1-1.92-2.5,2.228,2.228,0,0,1,1.92,2.5" transform="translate(-1981.109 -1557.495)" fill="#fe663f"/>
        <path id="Trazado_888011" data-name="Trazado 888011" d="M2081.031,1636.879a2.917,2.917,0,0,1-.377-.025,2.883,2.883,0,1,1,3.234-2.485h0a2.888,2.888,0,0,1-2.857,2.509m0-4.458a1.574,1.574,0,1,0,.206.013,1.576,1.576,0,0,0-.206-.013" transform="translate(-1969.265 -1545.653)" fill="#fe663f"/>
        <path id="Trazado_888012" data-name="Trazado 888012" d="M2475.218,1546.855a2.229,2.229,0,1,1-1.92-2.5,2.228,2.228,0,0,1,1.92,2.5" transform="translate(-2341.328 -1463.425)" fill="#fe663f"/>
        <path id="Trazado_888013" data-name="Trazado 888013" d="M2461.165,1537.6a2.885,2.885,0,0,1-2.861-3.258,2.884,2.884,0,0,1,5.718.749h0a2.888,2.888,0,0,1-2.857,2.509m-.005-4.458a1.577,1.577,0,1,0,.208.014,1.588,1.588,0,0,0-.208-.014" transform="translate(-2329.483 -1451.577)" fill="#fe663f"/>
        <path id="Trazado_888014" data-name="Trazado 888014" d="M1394.188,1734.085a2.229,2.229,0,1,1-1.92-2.5,2.229,2.229,0,0,1,1.92,2.5" transform="translate(-1316.937 -1640.845)" fill="#fe663f"/>
        <path id="Trazado_888015" data-name="Trazado 888015" d="M1380.14,1724.832a2.941,2.941,0,0,1-.38-.025,2.873,2.873,0,1,1,.38.025m-.009-4.458a1.574,1.574,0,1,0,1.564,1.778h0a1.574,1.574,0,0,0-1.356-1.765,1.615,1.615,0,0,0-.208-.014" transform="translate(-1305.092 -1628.998)" fill="#fe663f"/>
      </g>
    </g>
    <rect id="Rectángulo_404933" data-name="Rectángulo 404933" width="7.323" height="25.357" transform="translate(115.716 23.427)" fill="#fe663f"/>
    <rect id="Rectángulo_404934" data-name="Rectángulo 404934" width="7.584" height="17.395" transform="translate(105.34 31.39)" fill="#fe663f"/>
    <rect id="Rectángulo_404935" data-name="Rectángulo 404935" width="7.212" height="9.327" transform="translate(95.244 39.458)" fill="#fe663f"/>
    <g id="Grupo_1107805" data-name="Grupo 1107805" transform="translate(0 0)">
      <g id="Grupo_1107804" data-name="Grupo 1107804" clip-path="url(#clip-path-2)">
        <path id="Trazado_888016" data-name="Trazado 888016" d="M2250.969,284.262a1.586,1.586,0,1,1-1.586-1.586,1.586,1.586,0,0,1,1.586,1.586" transform="translate(-2130.029 -267.866)" fill="#2d3047"/>
        <path id="Trazado_888017" data-name="Trazado 888017" d="M2225.519,348.686h-5.346a.38.38,0,0,1-.38-.38v-.168a2.073,2.073,0,0,1,1.968-2.07.37.37,0,0,1,.176.036,2.135,2.135,0,0,0,.91.168,2.327,2.327,0,0,0,.913-.174.37.37,0,0,1,.164-.03,2.072,2.072,0,0,1,1.977,2.07v.168a.38.38,0,0,1-.38.38" transform="translate(-2103.491 -327.935)" fill="#2d3047"/>
        <path id="Trazado_888018" data-name="Trazado 888018" d="M2055.462,434.9a1.586,1.586,0,1,1-1.586-1.586,1.586,1.586,0,0,1,1.586,1.586" transform="translate(-1944.765 -410.609)" fill="#2d3047"/>
        <path id="Trazado_888019" data-name="Trazado 888019" d="M2030.011,499.322h-5.346a.38.38,0,0,1-.38-.38v-.168a2.073,2.073,0,0,1,1.968-2.07.369.369,0,0,1,.176.036,2.137,2.137,0,0,0,.91.168,2.327,2.327,0,0,0,.912-.174.369.369,0,0,1,.164-.03,2.072,2.072,0,0,1,1.977,2.07v.168a.38.38,0,0,1-.38.38" transform="translate(-1918.227 -470.68)" fill="#2d3047"/>
        <path id="Trazado_888020" data-name="Trazado 888020" d="M1858.352,590.814a1.586,1.586,0,1,1-1.586-1.586,1.586,1.586,0,0,1,1.586,1.586" transform="translate(-1757.982 -558.357)" fill="#2d3047"/>
        <path id="Trazado_888021" data-name="Trazado 888021" d="M1832.9,655.238h-5.346a.38.38,0,0,1-.38-.38v-.168a2.073,2.073,0,0,1,1.968-2.07.368.368,0,0,1,.176.036,2.139,2.139,0,0,0,.91.168,2.325,2.325,0,0,0,.912-.174.371.371,0,0,1,.164-.03,2.072,2.072,0,0,1,1.977,2.07v.168a.38.38,0,0,1-.38.38" transform="translate(-1731.444 -618.426)" fill="#2d3047"/>
      </g>
    </g>
    <g id="Grupo_1107807" data-name="Grupo 1107807" transform="translate(0 0)">
      <g id="Grupo_1107806" data-name="Grupo 1107806" clip-path="url(#clip-path-2)">
        <rect id="Rectángulo_404937" data-name="Rectángulo 404937" width="48.812" height="31.747" rx="2" transform="translate(129.603 31.833)" fill="#fff"/>
        <path id="Trazado_888022" data-name="Trazado 888022" d="M2515.622,604.44a3.379,3.379,0,0,1,3.375,3.375v24.63a3.379,3.379,0,0,1-3.375,3.375h-41.695a3.379,3.379,0,0,1-3.375-3.375v-24.63a3.379,3.379,0,0,1,3.375-3.375Zm0-.367h-41.695a3.742,3.742,0,0,0-3.742,3.742v24.63a3.742,3.742,0,0,0,3.742,3.742h41.695a3.742,3.742,0,0,0,3.742-3.742v-24.63a3.742,3.742,0,0,0-3.742-3.742" transform="translate(-2340.765 -572.424)" fill="#434343"/>
        <rect id="Rectángulo_404938" data-name="Rectángulo 404938" width="2.082" height="9.599" transform="translate(167.632 47.822)" fill="#2d3047"/>
        <rect id="Rectángulo_404939" data-name="Rectángulo 404939" width="2.082" height="8.493" transform="translate(163.696 48.929)" fill="#2d3047"/>
        <rect id="Rectángulo_404940" data-name="Rectángulo 404940" width="2.082" height="10.247" transform="translate(159.761 47.174)" fill="#2d3047"/>
        <rect id="Rectángulo_404941" data-name="Rectángulo 404941" width="2.082" height="6.788" transform="translate(155.825 50.633)" fill="#2d3047"/>
        <rect id="Rectángulo_404942" data-name="Rectángulo 404942" width="2.082" height="4.2" transform="translate(151.89 53.222)" fill="#2d3047"/>
        <rect id="Rectángulo_404943" data-name="Rectángulo 404943" width="2.082" height="5.272" transform="translate(147.954 52.149)" fill="#2d3047"/>
        <rect id="Rectángulo_404944" data-name="Rectángulo 404944" width="2.082" height="8.493" transform="translate(144.018 48.929)" fill="#2d3047"/>
        <rect id="Rectángulo_404945" data-name="Rectángulo 404945" width="2.082" height="2.972" transform="translate(140.083 54.449)" fill="#2d3047"/>
        <path id="Trazado_888023" data-name="Trazado 888023" d="M2675.375,839.276a.14.14,0,1,1,.193.048.139.139,0,0,1-.072.02.141.141,0,0,1-.121-.069m1.177-.706a.141.141,0,1,1,.12.068.14.14,0,0,1-.12-.068m1.176-.706a.141.141,0,1,1,.193.048.14.14,0,0,1-.193-.048m1.177-.706a.141.141,0,1,1,.121.068.141.141,0,0,1-.121-.068m1.177-.706a.141.141,0,1,1,.193.048.138.138,0,0,1-.072.02.141.141,0,0,1-.121-.068" transform="translate(-2535.185 -792.427)" fill="#434343"/>
        <path id="Trazado_888024" data-name="Trazado 888024" d="M2636.678,895.9a.81.81,0,1,1-.81-.81.81.81,0,0,1,.81.81" transform="translate(-2497 -848.191)" fill="#ec771f"/>
        <path id="Trazado_888025" data-name="Trazado 888025" d="M2771.5,813.573a.81.81,0,1,1-.81-.81.81.81,0,0,1,.81.81" transform="translate(-2624.755 -770.18)" fill="#ec771f"/>
        <path id="Trazado_888026" data-name="Trazado 888026" d="M2916.721,841.681a.81.81,0,1,1-.81-.81.81.81,0,0,1,.81.81" transform="translate(-2762.371 -796.815)" fill="#ec771f"/>
        <path id="Trazado_888027" data-name="Trazado 888027" d="M3072.719,746.584a.81.81,0,1,1-.81-.81.81.81,0,0,1,.81.81" transform="translate(-2910.196 -706.701)" fill="#ec771f"/>
        <path id="Trazado_888028" data-name="Trazado 888028" d="M3224.507,775.84a.81.81,0,1,1-.81-.81.81.81,0,0,1,.81.81" transform="translate(-3054.031 -734.424)" fill="#ec771f"/>
        <path id="Trazado_888029" data-name="Trazado 888029" d="M2947.165,779.421a.141.141,0,1,1,.194.046.138.138,0,0,1-.074.021.142.142,0,0,1-.12-.067m1.167-.721a.141.141,0,1,1,.12.067.141.141,0,0,1-.12-.067m1.167-.721a.141.141,0,1,1,.119.067.141.141,0,0,1-.119-.067m1.167-.721a.141.141,0,1,1,.194.046.137.137,0,0,1-.074.021.141.141,0,0,1-.12-.067m1.168-.721a.14.14,0,1,1,.119.067.14.14,0,0,1-.119-.067m1.167-.721a.141.141,0,1,1,.12.067.141.141,0,0,1-.12-.067" transform="translate(-2792.735 -734.964)" fill="#434343"/>
        <path id="Trazado_888030" data-name="Trazado 888030" d="M2820.052,833.18a.139.139,0,1,1,.028,0,.128.128,0,0,1-.028,0m-1.344-.279a.139.139,0,1,1,.029,0,.136.136,0,0,1-.029,0m-1.343-.279a.142.142,0,1,1,.029,0l-.029,0m-1.343-.279a.139.139,0,1,1,.028,0,.125.125,0,0,1-.028,0" transform="translate(-2668.375 -788.47)" fill="#434343"/>
        <path id="Trazado_888031" data-name="Trazado 888031" d="M3122.975,766.994a.143.143,0,1,1,.027,0l-.027,0m-1.348-.257a.143.143,0,1,1,.027,0l-.027,0m-1.348-.257a.143.143,0,1,1,.026,0l-.026,0m-1.349-.257a.144.144,0,1,1,.027,0l-.027,0" transform="translate(-2955.414 -725.815)" fill="#434343"/>
      </g>
    </g>
    <g id="Grupo_1107809" data-name="Grupo 1107809" transform="translate(0 0)">
      <g id="Grupo_1107808" data-name="Grupo 1107808" clip-path="url(#clip-path-2)">
        <rect id="Rectángulo_404947" data-name="Rectángulo 404947" width="70.551" height="37.474" rx="4" transform="translate(20.849 48.115)" fill="#fff"/>
        <path id="Trazado_888032" data-name="Trazado 888032" d="M462.048,915.213a2.949,2.949,0,0,1,2.945,2.945v31.216a2.949,2.949,0,0,1-2.945,2.945H397.754a2.949,2.949,0,0,1-2.945-2.945V918.158a2.949,2.949,0,0,1,2.945-2.945Zm0-.367H397.754a3.312,3.312,0,0,0-3.312,3.312v31.216a3.312,3.312,0,0,0,3.312,3.312h64.294a3.312,3.312,0,0,0,3.312-3.312V918.158a3.312,3.312,0,0,0-3.312-3.312" transform="translate(-373.776 -866.915)" fill="#4b4045"/>
        <rect id="Rectángulo_404948" data-name="Rectángulo 404948" width="1.556" height="8.161" transform="translate(30.988 70.813)" fill="#fe663f"/>
        <rect id="Rectángulo_404949" data-name="Rectángulo 404949" width="1.556" height="13.163" transform="translate(41.069 65.81)" fill="#fe663f"/>
        <rect id="Rectángulo_404950" data-name="Rectángulo 404950" width="1.556" height="18.099" transform="translate(36.189 60.875)" fill="#fe663f"/>
        <rect id="Rectángulo_404951" data-name="Rectángulo 404951" width="1.556" height="6.581" transform="translate(45.888 72.392)" fill="#2d3047"/>
        <rect id="Rectángulo_404952" data-name="Rectángulo 404952" width="1.556" height="16.453" transform="translate(50.798 62.52)" fill="#fe663f"/>
        <rect id="Rectángulo_404953" data-name="Rectángulo 404953" width="1.556" height="11.517" transform="translate(55.716 67.456)" fill="#2d3047"/>
        <rect id="Rectángulo_404954" data-name="Rectángulo 404954" width="1.556" height="14.808" transform="translate(60.852 64.165)" fill="#2d3047"/>
        <rect id="Rectángulo_404955" data-name="Rectángulo 404955" width="1.556" height="9.872" transform="translate(65.775 69.101)" fill="#fe663f"/>
        <rect id="Rectángulo_404956" data-name="Rectángulo 404956" width="1.556" height="18.099" transform="translate(70.533 60.875)" fill="#fe663f"/>
        <rect id="Rectángulo_404957" data-name="Rectángulo 404957" width="1.556" height="19.744" transform="translate(75.515 59.229)" fill="#2d3047"/>
        <rect id="Rectángulo_404958" data-name="Rectángulo 404958" width="1.556" height="21.389" transform="translate(80.362 57.584)" fill="#fe663f"/>
      </g>
    </g>
    <g id="Grupo_1107811" data-name="Grupo 1107811" transform="translate(0 0)">
      <g id="Grupo_1107810" data-name="Grupo 1107810" clip-path="url(#clip-path-2)">
        <rect id="Rectángulo_404960" data-name="Rectángulo 404960" width="51.376" height="32.018" rx="2" transform="translate(144.17 82.864)" fill="#fff"/>
        <path id="Trazado_888033" data-name="Trazado 888033" d="M2796.826,1578.458a2.778,2.778,0,0,1,2.774,2.775v26.1a2.778,2.778,0,0,1-2.774,2.775h-45.46a2.778,2.778,0,0,1-2.775-2.775v-26.1a2.778,2.778,0,0,1,2.775-2.775Zm0-.367h-45.46a3.141,3.141,0,0,0-3.141,3.141v26.1a3.141,3.141,0,0,0,3.141,3.141h45.46a3.142,3.142,0,0,0,3.141-3.141v-26.1a3.142,3.142,0,0,0-3.141-3.141" transform="translate(-2604.237 -1495.41)" fill="#4b4045"/>
        <rect id="Rectángulo_404961" data-name="Rectángulo 404961" width="6.441" height="2.005" transform="translate(149.69 86.751)" fill="#fe663f"/>
        <path id="Trazado_888034" data-name="Trazado 888034" d="M2863.267,1657.532h-6.47V1655.5h6.47Zm-6.441-.03h6.411v-1.975h-6.411Z" transform="translate(-2707.122 -1568.762)" fill="#fff"/>
        <rect id="Rectángulo_404962" data-name="Rectángulo 404962" width="6.441" height="2.005" transform="translate(156.427 86.751)" fill="#fe663f"/>
        <path id="Trazado_888035" data-name="Trazado 888035" d="M2991.844,1657.532h-6.47V1655.5h6.47Zm-6.441-.03h6.411v-1.975H2985.4Z" transform="translate(-2828.962 -1568.762)" fill="#fff"/>
        <rect id="Rectángulo_404963" data-name="Rectángulo 404963" width="6.441" height="2.005" transform="translate(163.163 86.751)" fill="#fe663f"/>
        <path id="Trazado_888036" data-name="Trazado 888036" d="M3120.421,1657.532h-6.47V1655.5h6.47Zm-6.441-.03h6.411v-1.975h-6.411Z" transform="translate(-2950.802 -1568.762)" fill="#fff"/>
        <rect id="Rectángulo_404964" data-name="Rectángulo 404964" width="6.441" height="2.005" transform="translate(149.69 89.19)" fill="#fe663f"/>
        <path id="Trazado_888037" data-name="Trazado 888037" d="M2863.267,1704.077h-6.47v-2.034h6.47Zm-6.441-.03h6.411v-1.975h-6.411Z" transform="translate(-2707.122 -1612.868)" fill="#fff"/>
        <rect id="Rectángulo_404965" data-name="Rectángulo 404965" width="6.441" height="2.005" transform="translate(156.427 89.19)" fill="#ffcd8b"/>
        <path id="Trazado_888038" data-name="Trazado 888038" d="M2991.844,1704.077h-6.47v-2.034h6.47Zm-6.441-.03h6.411v-1.975H2985.4Z" transform="translate(-2828.962 -1612.868)" fill="#fff"/>
        <rect id="Rectángulo_404966" data-name="Rectángulo 404966" width="6.441" height="2.005" transform="translate(163.163 89.19)" fill="#ffcd8b"/>
        <path id="Trazado_888039" data-name="Trazado 888039" d="M3120.421,1704.077h-6.47v-2.034h6.47Zm-6.441-.03h6.411v-1.975h-6.411Z" transform="translate(-2950.802 -1612.868)" fill="#fff"/>
        <rect id="Rectángulo_404967" data-name="Rectángulo 404967" width="6.441" height="2.005" transform="translate(149.69 91.628)" fill="#fe663f"/>
        <path id="Trazado_888040" data-name="Trazado 888040" d="M2863.267,1750.621h-6.47v-2.034h6.47Zm-6.441-.03h6.411v-1.975h-6.411Z" transform="translate(-2707.122 -1656.974)" fill="#fff"/>
        <rect id="Rectángulo_404968" data-name="Rectángulo 404968" width="6.441" height="2.005" transform="translate(156.427 91.628)" fill="#ffcd8b"/>
        <path id="Trazado_888041" data-name="Trazado 888041" d="M2991.844,1750.621h-6.47v-2.034h6.47Zm-6.441-.03h6.411v-1.975H2985.4Z" transform="translate(-2828.962 -1656.974)" fill="#fff"/>
        <rect id="Rectángulo_404969" data-name="Rectángulo 404969" width="6.441" height="2.005" transform="translate(163.163 91.628)" fill="#ffcd8b"/>
        <path id="Trazado_888042" data-name="Trazado 888042" d="M3120.421,1750.621h-6.47v-2.034h6.47Zm-6.441-.03h6.411v-1.975h-6.411Z" transform="translate(-2950.802 -1656.974)" fill="#fff"/>
        <rect id="Rectángulo_404970" data-name="Rectángulo 404970" width="6.441" height="2.005" transform="translate(149.69 94.067)" fill="#fe663f"/>
        <path id="Trazado_888043" data-name="Trazado 888043" d="M2863.267,1797.165h-6.47v-2.034h6.47Zm-6.441-.03h6.411v-1.975h-6.411Z" transform="translate(-2707.122 -1701.079)" fill="#fff"/>
        <rect id="Rectángulo_404971" data-name="Rectángulo 404971" width="6.441" height="2.005" transform="translate(156.427 94.067)" fill="#ffcd8b"/>
        <path id="Trazado_888044" data-name="Trazado 888044" d="M2991.844,1797.165h-6.47v-2.034h6.47Zm-6.441-.03h6.411v-1.975H2985.4Z" transform="translate(-2828.962 -1701.079)" fill="#fff"/>
        <rect id="Rectángulo_404972" data-name="Rectángulo 404972" width="6.441" height="2.005" transform="translate(163.163 94.067)" fill="#ffcd8b"/>
        <path id="Trazado_888045" data-name="Trazado 888045" d="M3120.421,1797.165h-6.47v-2.034h6.47Zm-6.441-.03h6.411v-1.975h-6.411Z" transform="translate(-2950.802 -1701.079)" fill="#fff"/>
        <rect id="Rectángulo_404973" data-name="Rectángulo 404973" width="6.441" height="2.005" transform="translate(149.69 96.505)" fill="#fe663f"/>
        <path id="Trazado_888046" data-name="Trazado 888046" d="M2863.267,1843.709h-6.47v-2.034h6.47Zm-6.441-.03h6.411V1841.7h-6.411Z" transform="translate(-2707.122 -1745.185)" fill="#fff"/>
        <rect id="Rectángulo_404974" data-name="Rectángulo 404974" width="6.441" height="2.005" transform="translate(156.427 96.505)" fill="#ffcd8b"/>
        <path id="Trazado_888047" data-name="Trazado 888047" d="M2991.844,1843.709h-6.47v-2.034h6.47Zm-6.441-.03h6.411V1841.7H2985.4Z" transform="translate(-2828.962 -1745.185)" fill="#fff"/>
        <rect id="Rectángulo_404975" data-name="Rectángulo 404975" width="6.441" height="2.005" transform="translate(163.163 96.505)" fill="#ffcd8b"/>
        <path id="Trazado_888048" data-name="Trazado 888048" d="M3120.421,1843.709h-6.47v-2.034h6.47Zm-6.441-.03h6.411V1841.7h-6.411Z" transform="translate(-2950.802 -1745.185)" fill="#fff"/>
        <rect id="Rectángulo_404976" data-name="Rectángulo 404976" width="6.441" height="2.005" transform="translate(149.69 98.944)" fill="#fe663f"/>
        <path id="Trazado_888049" data-name="Trazado 888049" d="M2863.267,1890.253h-6.47v-2.034h6.47Zm-6.441-.03h6.411v-1.975h-6.411Z" transform="translate(-2707.122 -1789.29)" fill="#fff"/>
        <rect id="Rectángulo_404977" data-name="Rectángulo 404977" width="6.441" height="2.005" transform="translate(156.427 98.944)" fill="#ffcd8b"/>
        <path id="Trazado_888050" data-name="Trazado 888050" d="M2991.844,1890.253h-6.47v-2.034h6.47Zm-6.441-.03h6.411v-1.975H2985.4Z" transform="translate(-2828.962 -1789.29)" fill="#fff"/>
        <rect id="Rectángulo_404978" data-name="Rectángulo 404978" width="6.441" height="2.005" transform="translate(163.163 98.944)" fill="#ffcd8b"/>
        <path id="Trazado_888051" data-name="Trazado 888051" d="M3120.421,1890.253h-6.47v-2.034h6.47Zm-6.441-.03h6.411v-1.975h-6.411Z" transform="translate(-2950.802 -1789.29)" fill="#fff"/>
        <rect id="Rectángulo_404979" data-name="Rectángulo 404979" width="6.441" height="2.005" transform="translate(149.69 101.383)" fill="#fe663f"/>
        <path id="Trazado_888052" data-name="Trazado 888052" d="M2863.267,1936.8h-6.47v-2.034h6.47Zm-6.441-.03h6.411v-1.975h-6.411Z" transform="translate(-2707.122 -1833.396)" fill="#fff"/>
        <rect id="Rectángulo_404980" data-name="Rectángulo 404980" width="6.441" height="2.005" transform="translate(156.427 101.383)" fill="#ffcd8b"/>
        <path id="Trazado_888053" data-name="Trazado 888053" d="M2991.844,1936.8h-6.47v-2.034h6.47Zm-6.441-.03h6.411v-1.975H2985.4Z" transform="translate(-2828.962 -1833.396)" fill="#fff"/>
        <rect id="Rectángulo_404981" data-name="Rectángulo 404981" width="6.441" height="2.005" transform="translate(163.163 101.383)" fill="#ffcd8b"/>
        <path id="Trazado_888054" data-name="Trazado 888054" d="M3120.421,1936.8h-6.47v-2.034h6.47Zm-6.441-.03h6.411v-1.975h-6.411Z" transform="translate(-2950.802 -1833.396)" fill="#fff"/>
        <rect id="Rectángulo_404982" data-name="Rectángulo 404982" width="6.441" height="2.005" transform="translate(149.69 103.821)" fill="#fe663f"/>
        <path id="Trazado_888055" data-name="Trazado 888055" d="M2863.267,1983.342h-6.47v-2.034h6.47Zm-6.441-.03h6.411v-1.975h-6.411Z" transform="translate(-2707.122 -1877.501)" fill="#fff"/>
        <rect id="Rectángulo_404983" data-name="Rectángulo 404983" width="6.441" height="2.005" transform="translate(156.427 103.821)" fill="#ffcd8b"/>
        <path id="Trazado_888056" data-name="Trazado 888056" d="M2991.844,1983.342h-6.47v-2.034h6.47Zm-6.441-.03h6.411v-1.975H2985.4Z" transform="translate(-2828.962 -1877.501)" fill="#fff"/>
        <rect id="Rectángulo_404984" data-name="Rectángulo 404984" width="6.441" height="2.005" transform="translate(163.163 103.821)" fill="#ffcd8b"/>
        <path id="Trazado_888057" data-name="Trazado 888057" d="M3120.421,1983.342h-6.47v-2.034h6.47Zm-6.441-.03h6.411v-1.975h-6.411Z" transform="translate(-2950.802 -1877.501)" fill="#fff"/>
        <rect id="Rectángulo_404985" data-name="Rectángulo 404985" width="6.441" height="2.005" transform="translate(149.69 106.26)" fill="#fe663f"/>
        <path id="Trazado_888058" data-name="Trazado 888058" d="M2863.267,2029.886h-6.47v-2.034h6.47Zm-6.441-.03h6.411v-1.975h-6.411Z" transform="translate(-2707.122 -1921.607)" fill="#fff"/>
        <rect id="Rectángulo_404986" data-name="Rectángulo 404986" width="6.441" height="2.005" transform="translate(156.427 106.26)" fill="#ffcd8b"/>
        <path id="Trazado_888059" data-name="Trazado 888059" d="M2991.844,2029.886h-6.47v-2.034h6.47Zm-6.441-.03h6.411v-1.975H2985.4Z" transform="translate(-2828.962 -1921.607)" fill="#fff"/>
        <rect id="Rectángulo_404987" data-name="Rectángulo 404987" width="6.441" height="2.005" transform="translate(163.163 106.26)" fill="#ffcd8b"/>
        <path id="Trazado_888060" data-name="Trazado 888060" d="M3120.421,2029.886h-6.47v-2.034h6.47Zm-6.441-.03h6.411v-1.975h-6.411Z" transform="translate(-2950.802 -1921.607)" fill="#fff"/>
        <rect id="Rectángulo_404988" data-name="Rectángulo 404988" width="6.441" height="2.005" transform="translate(149.69 108.698)" fill="#fe663f"/>
        <path id="Trazado_888061" data-name="Trazado 888061" d="M2863.267,2076.43h-6.47V2074.4h6.47Zm-6.441-.03h6.411v-1.975h-6.411Z" transform="translate(-2707.122 -1965.713)" fill="#fff"/>
        <rect id="Rectángulo_404989" data-name="Rectángulo 404989" width="6.441" height="2.005" transform="translate(156.427 108.698)" fill="#ffcd8b"/>
        <path id="Trazado_888062" data-name="Trazado 888062" d="M2991.844,2076.43h-6.47V2074.4h6.47Zm-6.441-.03h6.411v-1.975H2985.4Z" transform="translate(-2828.962 -1965.713)" fill="#fff"/>
        <rect id="Rectángulo_404990" data-name="Rectángulo 404990" width="6.441" height="2.005" transform="translate(163.163 108.698)" fill="#ffcd8b"/>
        <path id="Trazado_888063" data-name="Trazado 888063" d="M3120.421,2076.43h-6.47V2074.4h6.47Zm-6.441-.03h6.411v-1.975h-6.411Z" transform="translate(-2950.802 -1965.713)" fill="#fff"/>
        <rect id="Rectángulo_404991" data-name="Rectángulo 404991" width="6.441" height="2.005" transform="translate(169.905 86.751)" fill="#fe663f"/>
        <path id="Trazado_888064" data-name="Trazado 888064" d="M3249.088,1657.532h-6.47V1655.5h6.47Zm-6.441-.03h6.411v-1.975h-6.411Z" transform="translate(-3072.729 -1568.762)" fill="#fff"/>
        <rect id="Rectángulo_404992" data-name="Rectángulo 404992" width="6.441" height="2.005" transform="translate(176.641 86.751)" fill="#fe663f"/>
        <path id="Trazado_888065" data-name="Trazado 888065" d="M3377.666,1657.532h-6.47V1655.5h6.47Zm-6.441-.03h6.411v-1.975h-6.411Z" transform="translate(-3194.569 -1568.762)" fill="#fff"/>
        <rect id="Rectángulo_404993" data-name="Rectángulo 404993" width="6.441" height="2.005" transform="translate(169.905 89.19)" fill="#ffcd8b"/>
        <path id="Trazado_888066" data-name="Trazado 888066" d="M3249.088,1704.077h-6.47v-2.034h6.47Zm-6.441-.03h6.411v-1.975h-6.411Z" transform="translate(-3072.729 -1612.868)" fill="#fff"/>
        <rect id="Rectángulo_404994" data-name="Rectángulo 404994" width="6.441" height="2.005" transform="translate(176.641 89.19)" fill="#ffcd8b"/>
        <path id="Trazado_888067" data-name="Trazado 888067" d="M3377.666,1704.077h-6.47v-2.034h6.47Zm-6.441-.03h6.411v-1.975h-6.411Z" transform="translate(-3194.569 -1612.868)" fill="#fff"/>
        <rect id="Rectángulo_404995" data-name="Rectángulo 404995" width="6.441" height="2.005" transform="translate(169.905 91.628)" fill="#ffcd8b"/>
        <path id="Trazado_888068" data-name="Trazado 888068" d="M3249.088,1750.621h-6.47v-2.034h6.47Zm-6.441-.03h6.411v-1.975h-6.411Z" transform="translate(-3072.729 -1656.974)" fill="#fff"/>
        <rect id="Rectángulo_404996" data-name="Rectángulo 404996" width="6.441" height="2.005" transform="translate(176.641 91.628)" fill="#ffcd8b"/>
        <path id="Trazado_888069" data-name="Trazado 888069" d="M3377.666,1750.621h-6.47v-2.034h6.47Zm-6.441-.03h6.411v-1.975h-6.411Z" transform="translate(-3194.569 -1656.974)" fill="#fff"/>
        <rect id="Rectángulo_404997" data-name="Rectángulo 404997" width="6.441" height="2.005" transform="translate(169.905 94.067)" fill="#ffcd8b"/>
        <path id="Trazado_888070" data-name="Trazado 888070" d="M3249.088,1797.165h-6.47v-2.034h6.47Zm-6.441-.03h6.411v-1.975h-6.411Z" transform="translate(-3072.729 -1701.079)" fill="#fff"/>
        <rect id="Rectángulo_404998" data-name="Rectángulo 404998" width="6.441" height="2.005" transform="translate(176.641 94.067)" fill="#ffcd8b"/>
        <path id="Trazado_888071" data-name="Trazado 888071" d="M3377.666,1797.165h-6.47v-2.034h6.47Zm-6.441-.03h6.411v-1.975h-6.411Z" transform="translate(-3194.569 -1701.079)" fill="#fff"/>
        <rect id="Rectángulo_404999" data-name="Rectángulo 404999" width="6.441" height="2.005" transform="translate(169.905 96.505)" fill="#ffcd8b"/>
        <path id="Trazado_888072" data-name="Trazado 888072" d="M3249.088,1843.709h-6.47v-2.034h6.47Zm-6.441-.03h6.411V1841.7h-6.411Z" transform="translate(-3072.729 -1745.185)" fill="#fff"/>
        <rect id="Rectángulo_405000" data-name="Rectángulo 405000" width="6.441" height="2.005" transform="translate(176.641 96.505)" fill="#ffcd8b"/>
        <path id="Trazado_888073" data-name="Trazado 888073" d="M3377.666,1843.709h-6.47v-2.034h6.47Zm-6.441-.03h6.411V1841.7h-6.411Z" transform="translate(-3194.569 -1745.185)" fill="#fff"/>
        <rect id="Rectángulo_405001" data-name="Rectángulo 405001" width="6.441" height="2.005" transform="translate(169.905 98.944)" fill="#ffcd8b"/>
        <path id="Trazado_888074" data-name="Trazado 888074" d="M3249.088,1890.253h-6.47v-2.034h6.47Zm-6.441-.03h6.411v-1.975h-6.411Z" transform="translate(-3072.729 -1789.29)" fill="#fff"/>
        <rect id="Rectángulo_405002" data-name="Rectángulo 405002" width="6.441" height="2.005" transform="translate(176.641 98.944)" fill="#ffcd8b"/>
        <path id="Trazado_888075" data-name="Trazado 888075" d="M3377.666,1890.253h-6.47v-2.034h6.47Zm-6.441-.03h6.411v-1.975h-6.411Z" transform="translate(-3194.569 -1789.29)" fill="#fff"/>
        <rect id="Rectángulo_405003" data-name="Rectángulo 405003" width="6.441" height="2.005" transform="translate(169.905 101.383)" fill="#ffcd8b"/>
        <path id="Trazado_888076" data-name="Trazado 888076" d="M3249.088,1936.8h-6.47v-2.034h6.47Zm-6.441-.03h6.411v-1.975h-6.411Z" transform="translate(-3072.729 -1833.396)" fill="#fff"/>
        <rect id="Rectángulo_405004" data-name="Rectángulo 405004" width="6.441" height="2.005" transform="translate(176.641 101.383)" fill="#ffcd8b"/>
        <path id="Trazado_888077" data-name="Trazado 888077" d="M3377.666,1936.8h-6.47v-2.034h6.47Zm-6.441-.03h6.411v-1.975h-6.411Z" transform="translate(-3194.569 -1833.396)" fill="#fff"/>
        <rect id="Rectángulo_405005" data-name="Rectángulo 405005" width="6.441" height="2.005" transform="translate(169.905 103.821)" fill="#ffcd8b"/>
        <path id="Trazado_888078" data-name="Trazado 888078" d="M3249.088,1983.342h-6.47v-2.034h6.47Zm-6.441-.03h6.411v-1.975h-6.411Z" transform="translate(-3072.729 -1877.501)" fill="#fff"/>
        <rect id="Rectángulo_405006" data-name="Rectángulo 405006" width="6.441" height="2.005" transform="translate(176.641 103.821)" fill="#ffcd8b"/>
        <path id="Trazado_888079" data-name="Trazado 888079" d="M3377.666,1983.342h-6.47v-2.034h6.47Zm-6.441-.03h6.411v-1.975h-6.411Z" transform="translate(-3194.569 -1877.501)" fill="#fff"/>
        <rect id="Rectángulo_405007" data-name="Rectángulo 405007" width="6.441" height="2.005" transform="translate(169.905 106.26)" fill="#ffcd8b"/>
        <path id="Trazado_888080" data-name="Trazado 888080" d="M3249.088,2029.886h-6.47v-2.034h6.47Zm-6.441-.03h6.411v-1.975h-6.411Z" transform="translate(-3072.729 -1921.607)" fill="#fff"/>
        <rect id="Rectángulo_405008" data-name="Rectángulo 405008" width="6.441" height="2.005" transform="translate(176.641 106.26)" fill="#ffcd8b"/>
        <path id="Trazado_888081" data-name="Trazado 888081" d="M3377.666,2029.886h-6.47v-2.034h6.47Zm-6.441-.03h6.411v-1.975h-6.411Z" transform="translate(-3194.569 -1921.607)" fill="#fff"/>
        <rect id="Rectángulo_405009" data-name="Rectángulo 405009" width="6.441" height="2.005" transform="translate(169.905 108.698)" fill="#ffcd8b"/>
        <path id="Trazado_888082" data-name="Trazado 888082" d="M3249.088,2076.43h-6.47V2074.4h6.47Zm-6.441-.03h6.411v-1.975h-6.411Z" transform="translate(-3072.729 -1965.713)" fill="#fff"/>
        <rect id="Rectángulo_405010" data-name="Rectángulo 405010" width="6.441" height="2.005" transform="translate(176.641 108.698)" fill="#ffcd8b"/>
        <path id="Trazado_888083" data-name="Trazado 888083" d="M3377.666,2076.43h-6.47V2074.4h6.47Zm-6.441-.03h6.411v-1.975h-6.411Z" transform="translate(-3194.569 -1965.713)" fill="#fff"/>
        <rect id="Rectángulo_405011" data-name="Rectángulo 405011" width="6.441" height="2.005" transform="translate(183.382 86.751)" fill="#fe663f"/>
        <path id="Trazado_888084" data-name="Trazado 888084" d="M3506.333,1657.532h-6.47V1655.5h6.47Zm-6.441-.03h6.411v-1.975h-6.411Z" transform="translate(-3316.495 -1568.762)" fill="#fff"/>
        <rect id="Rectángulo_405012" data-name="Rectángulo 405012" width="6.441" height="2.005" transform="translate(183.382 89.19)" fill="#ffcd8b"/>
        <path id="Trazado_888085" data-name="Trazado 888085" d="M3506.333,1704.077h-6.47v-2.034h6.47Zm-6.441-.03h6.411v-1.975h-6.411Z" transform="translate(-3316.495 -1612.868)" fill="#fff"/>
        <rect id="Rectángulo_405013" data-name="Rectángulo 405013" width="6.441" height="2.005" transform="translate(183.382 91.628)" fill="#ffcd8b"/>
        <path id="Trazado_888086" data-name="Trazado 888086" d="M3506.333,1750.621h-6.47v-2.034h6.47Zm-6.441-.03h6.411v-1.975h-6.411Z" transform="translate(-3316.495 -1656.974)" fill="#fff"/>
        <rect id="Rectángulo_405014" data-name="Rectángulo 405014" width="6.441" height="2.005" transform="translate(183.382 94.067)" fill="#ffcd8b"/>
        <path id="Trazado_888087" data-name="Trazado 888087" d="M3506.333,1797.165h-6.47v-2.034h6.47Zm-6.441-.03h6.411v-1.975h-6.411Z" transform="translate(-3316.495 -1701.079)" fill="#fff"/>
        <rect id="Rectángulo_405015" data-name="Rectángulo 405015" width="6.441" height="2.005" transform="translate(183.382 96.505)" fill="#ffcd8b"/>
        <path id="Trazado_888088" data-name="Trazado 888088" d="M3506.333,1843.709h-6.47v-2.034h6.47Zm-6.441-.03h6.411V1841.7h-6.411Z" transform="translate(-3316.495 -1745.185)" fill="#fff"/>
        <rect id="Rectángulo_405016" data-name="Rectángulo 405016" width="6.441" height="2.005" transform="translate(183.382 98.944)" fill="#ffcd8b"/>
        <path id="Trazado_888089" data-name="Trazado 888089" d="M3506.333,1890.253h-6.47v-2.034h6.47Zm-6.441-.03h6.411v-1.975h-6.411Z" transform="translate(-3316.495 -1789.29)" fill="#fff"/>
        <rect id="Rectángulo_405017" data-name="Rectángulo 405017" width="6.441" height="2.005" transform="translate(183.382 101.383)" fill="#ffcd8b"/>
        <path id="Trazado_888090" data-name="Trazado 888090" d="M3506.333,1936.8h-6.47v-2.034h6.47Zm-6.441-.03h6.411v-1.975h-6.411Z" transform="translate(-3316.495 -1833.396)" fill="#fff"/>
        <rect id="Rectángulo_405018" data-name="Rectángulo 405018" width="6.441" height="2.005" transform="translate(183.382 103.821)" fill="#ffcd8b"/>
        <path id="Trazado_888091" data-name="Trazado 888091" d="M3506.333,1983.342h-6.47v-2.034h6.47Zm-6.441-.03h6.411v-1.975h-6.411Z" transform="translate(-3316.495 -1877.501)" fill="#fff"/>
        <rect id="Rectángulo_405019" data-name="Rectángulo 405019" width="6.441" height="2.005" transform="translate(183.382 106.26)" fill="#ffcd8b"/>
        <path id="Trazado_888092" data-name="Trazado 888092" d="M3506.333,2029.886h-6.47v-2.034h6.47Zm-6.441-.03h6.411v-1.975h-6.411Z" transform="translate(-3316.495 -1921.607)" fill="#fff"/>
        <rect id="Rectángulo_405020" data-name="Rectángulo 405020" width="6.441" height="2.005" transform="translate(183.382 108.698)" fill="#ffcd8b"/>
        <path id="Trazado_888093" data-name="Trazado 888093" d="M3506.333,2076.43h-6.47V2074.4h6.47Zm-6.441-.03h6.411v-1.975h-6.411Z" transform="translate(-3316.495 -1965.713)" fill="#fff"/>
      </g>
    </g>
    <g id="Grupo_1107813" data-name="Grupo 1107813" transform="translate(0 0)">
      <g id="Grupo_1107812" data-name="Grupo 1107812" clip-path="url(#clip-path-2)">
        <rect id="Rectángulo_405022" data-name="Rectángulo 405022" width="21.469" height="26.716" transform="translate(48.071 15.183)" fill="#fff"/>
        <path id="Trazado_888094" data-name="Trazado 888094" d="M934.336,286.649a1.146,1.146,0,0,1,1.145,1.145v24.06A1.146,1.146,0,0,1,934.336,313H915.523a1.146,1.146,0,0,1-1.145-1.145v-24.06a1.146,1.146,0,0,1,1.145-1.145Zm0-.367H915.523a1.511,1.511,0,0,0-1.511,1.511v24.06a1.511,1.511,0,0,0,1.511,1.511h18.813a1.511,1.511,0,0,0,1.511-1.511v-24.06a1.511,1.511,0,0,0-1.511-1.511" transform="translate(-866.124 -271.283)" fill="#4b4045"/>
        <path id="Trazado_888095" data-name="Trazado 888095" d="M970.826,382.226h-3.245a.647.647,0,0,1-.647-.647v-3.245a.647.647,0,0,1,.647-.647h3.245a.647.647,0,0,1,.647.647v3.245a.647.647,0,0,1-.647.647" transform="translate(-916.274 -357.898)" fill="#ffc421"/>
        <path id="Trazado_888096" data-name="Trazado 888096" d="M990.865,405l.182.17a.136.136,0,0,1,.005.194l-1.318,1.381a.136.136,0,0,1-.208-.012l-.732-.977a.136.136,0,0,1,.026-.19l.281-.214a.136.136,0,0,1,.2.045l.276.522a.136.136,0,0,0,.23.017l.851-.928a.143.143,0,0,1,.2-.008" transform="translate(-936.963 -383.741)" fill="#4b4045"/>
        <path id="Trazado_888097" data-name="Trazado 888097" d="M994.028,212.738H990.72a2.116,2.116,0,0,0-4.23,0h-3.309a2.073,2.073,0,0,0-2.073,2.073v.587H996.1v-.587a2.073,2.073,0,0,0-2.073-2.073m-5.394.484a.725.725,0,1,1,.725-.725.725.725,0,0,1-.725.725" transform="translate(-929.705 -199.645)" fill="#4b4045"/>
        <rect id="Rectángulo_405023" data-name="Rectángulo 405023" width="14.993" height="0.363" transform="translate(51.403 15.633)" fill="#fe663f"/>
        <rect id="Rectángulo_405024" data-name="Rectángulo 405024" width="10.254" height="0.262" transform="translate(56.505 20.724)" fill="#4b4045"/>
        <rect id="Rectángulo_405025" data-name="Rectángulo 405025" width="10.254" height="0.262" transform="translate(56.505 21.927)" fill="#4b4045"/>
        <rect id="Rectángulo_405026" data-name="Rectángulo 405026" width="6.491" height="0.262" transform="translate(56.505 23.13)" fill="#4b4045"/>
        <path id="Trazado_888098" data-name="Trazado 888098" d="M970.826,513.593h-3.245a.647.647,0,0,1-.647-.647V509.7a.647.647,0,0,1,.647-.647h3.245a.647.647,0,0,1,.647.647v3.245a.647.647,0,0,1-.647.647" transform="translate(-916.274 -482.382)" fill="#ffc421"/>
        <path id="Trazado_888099" data-name="Trazado 888099" d="M990.865,536.364l.182.171a.136.136,0,0,1,.005.194l-1.318,1.381a.136.136,0,0,1-.208-.012l-.732-.977a.136.136,0,0,1,.026-.19l.281-.214a.136.136,0,0,1,.2.045l.276.522a.136.136,0,0,0,.23.017l.851-.928a.143.143,0,0,1,.2-.008" transform="translate(-936.963 -508.226)" fill="#4b4045"/>
        <rect id="Rectángulo_405027" data-name="Rectángulo 405027" width="10.254" height="0.262" transform="translate(56.505 27.607)" fill="#4b4045"/>
        <rect id="Rectángulo_405028" data-name="Rectángulo 405028" width="10.254" height="0.262" transform="translate(56.505 28.81)" fill="#4b4045"/>
        <rect id="Rectángulo_405029" data-name="Rectángulo 405029" width="7.855" height="0.262" transform="translate(56.505 30.013)" fill="#4b4045"/>
        <path id="Trazado_888100" data-name="Trazado 888100" d="M970.826,644.96h-3.245a.647.647,0,0,1-.647-.647v-3.245a.647.647,0,0,1,.647-.647h3.245a.647.647,0,0,1,.647.647v3.245a.647.647,0,0,1-.647.647" transform="translate(-916.274 -606.867)" fill="#ffc421"/>
        <path id="Trazado_888101" data-name="Trazado 888101" d="M990.865,667.731l.182.17a.136.136,0,0,1,.005.194l-1.318,1.381a.136.136,0,0,1-.208-.012l-.732-.977a.136.136,0,0,1,.026-.19l.281-.214a.136.136,0,0,1,.2.045l.276.522a.136.136,0,0,0,.23.017l.851-.928a.143.143,0,0,1,.2-.008" transform="translate(-936.963 -632.71)" fill="#4b4045"/>
        <rect id="Rectángulo_405030" data-name="Rectángulo 405030" width="10.254" height="0.262" transform="translate(56.505 34.489)" fill="#4b4045"/>
        <rect id="Rectángulo_405031" data-name="Rectángulo 405031" width="10.254" height="0.262" transform="translate(56.505 35.692)" fill="#4b4045"/>
        <rect id="Rectángulo_405032" data-name="Rectángulo 405032" width="3.927" height="0.262" transform="translate(56.505 36.895)" fill="#4b4045"/>
      </g>
    </g>
    <g id="Grupo_1107818" data-name="Grupo 1107818" transform="translate(0 0)">
      <g id="Grupo_1107817" data-name="Grupo 1107817" clip-path="url(#clip-path-2)">
        <g id="Grupo_1107816" data-name="Grupo 1107816" transform="translate(77.102 0.71)" opacity="0.2">
          <g id="Grupo_1107815" data-name="Grupo 1107815">
            <g id="Grupo_1107814" data-name="Grupo 1107814" clip-path="url(#clip-path-11)">
              <path id="Trazado_888102" data-name="Trazado 888102" d="M1497.122,14.426A33.005,33.005,0,1,1,1472.5,54.077a33.005,33.005,0,0,1,24.627-39.651" transform="translate(-1471.622 -13.552)" fill="#ff4079"/>
            </g>
          </g>
        </g>
      </g>
    </g>
    <rect id="Rectángulo_405036" data-name="Rectángulo 405036" width="6.574" height="11.687" transform="translate(134.788 55.965) rotate(-52.998)" fill="#2d3047"/>
    <g id="Grupo_1107823" data-name="Grupo 1107823" transform="translate(0 0)">
      <g id="Grupo_1107822" data-name="Grupo 1107822" clip-path="url(#clip-path-2)">
        <path id="Trazado_888103" data-name="Trazado 888103" d="M2702.1,1044.348h0a7.67,7.67,0,0,1-10.741,1.509l-30.125-22.7a2.817,2.817,0,0,1-.554-3.945l5.841-7.751a2.817,2.817,0,0,1,3.945-.554l30.126,22.7a7.67,7.67,0,0,1,1.509,10.741" transform="translate(-2520.745 -957.402)" fill="#ffc421"/>
        <path id="Trazado_888104" data-name="Trazado 888104" d="M1492.7,67.279a33.624,33.624,0,0,1-28.547-51.385,33.532,33.532,0,0,1,20.915-15l.316,1.352L1485.07.89a33.64,33.64,0,0,1,27.455,59.943,33.829,33.829,0,0,1-19.823,6.446m.045-64.5a30.8,30.8,0,1,0,5.2.446,30.9,30.9,0,0,0-5.2-.446" transform="translate(-1382.638 0.002)" fill="#2d3047"/>
        <path id="Trazado_888105" data-name="Trazado 888105" d="M2850.245,1089.2h0a1.1,1.1,0,0,1-1.534.216l-30.917-23.3a1.1,1.1,0,1,1,1.319-1.75l30.917,23.3a1.1,1.1,0,0,1,.216,1.534" transform="translate(-2669.749 -1008.395)" fill="#e8b21e"/>
        <g id="Grupo_1107821" data-name="Grupo 1107821" transform="translate(84.632 9.047)" opacity="0.3">
          <g id="Grupo_1107820" data-name="Grupo 1107820">
            <g id="Grupo_1107819" data-name="Grupo 1107819" clip-path="url(#clip-path-13)">
              <path id="Trazado_888106" data-name="Trazado 888106" d="M1618.474,200.649a23.021,23.021,0,0,1,16.579-25.041,1.735,1.735,0,0,0,1.376-1.854,1.649,1.649,0,0,0-2.18-.994,25.981,25.981,0,0,0-18.711,28.261c.135,1.066.969,1.793,1.766,1.619h0a1.735,1.735,0,0,0,1.169-1.991" transform="translate(-1615.329 -172.674)" fill="#fff"/>
            </g>
          </g>
        </g>
      </g>
    </g>
    <g id="Grupo_1107825" data-name="Grupo 1107825" transform="translate(0 0)">
      <g id="Grupo_1107824" data-name="Grupo 1107824" clip-path="url(#clip-path-2)">
        <path id="Trazado_888107" data-name="Trazado 888107" d="M3592.939,1003.342c0-3.945-5.918-9.864-9.864-9.864,3.945,0,9.864-5.918,9.864-9.864,0,3.945,5.918,9.864,9.864,9.864-3.946,0-9.864,5.918-9.864,9.864" transform="translate(-3395.348 -932.081)" fill="#fe663f"/>
        <path id="Trazado_888108" data-name="Trazado 888108" d="M553.156,558.013c0-2.16-3.241-5.4-5.4-5.4,2.16,0,5.4-3.241,5.4-5.4,0,2.16,3.241,5.4,5.4,5.4-2.16,0-5.4,3.241-5.4,5.4" transform="translate(-519.057 -518.541)" fill="#2d3047"/>
        <path id="Trazado_888109" data-name="Trazado 888109" d="M2902.553,235.43c0-1.712-2.569-4.281-4.281-4.281,1.712,0,4.281-2.568,4.281-4.281,0,1.712,2.568,4.281,4.28,4.281-1.712,0-4.28,2.568-4.28,4.281" transform="translate(-2746.424 -214.983)" fill="#fff"/>
      </g>
    </g>
  </g>
</svg>
