<svg xmlns="http://www.w3.org/2000/svg" width="81" height="98" viewBox="0 0 81 98">
  <g id="Grupo_1107765" data-name="Grupo 1107765" transform="translate(-265.051 -805)">
    <g id="Grupo_1107761" data-name="Grupo 1107761" transform="translate(-459.104 -503.702)">
      <path id="Trazado_887743" data-name="Trazado 887743" d="M350.138,8.3h0a27.889,27.889,0,0,0-27.815,24.489c-2.316,20.2,14.91,40.763,23.443,49.584a6.394,6.394,0,0,0,9.191,0c8.038-8.31,23.792-27.041,23.654-46.072A28.38,28.38,0,0,0,350.138,8.3Zm.223,45.279a17.724,17.724,0,1,1,17.724-17.724A17.724,17.724,0,0,1,350.36,53.581Z" transform="translate(414.296 1308.296)" fill="#84c9fe"/>
      <path id="Trazado_887744" data-name="Trazado 887744" d="M402.115,8.3h0a28.411,28.411,0,0,0-4.675.392,28.252,28.252,0,0,1,23.575,27.858c0,18.884-15.548,37.426-23.575,45.74l.084.086a6.392,6.392,0,0,0,9.188,0C415,73.8,431.51,54.134,430.3,34.49A28.132,28.132,0,0,0,402.115,8.3Z" transform="translate(362.542 1308.296)" fill="#70b9e5"/>
      <path id="Trazado_887749" data-name="Trazado 887749" d="M367.764,31.409a20.323,20.323,0,1,0,20.323,20.323A20.346,20.346,0,0,0,367.764,31.409Zm0,35.449A15.126,15.126,0,1,1,382.89,51.732,15.143,15.143,0,0,1,367.764,66.858Z" transform="translate(396.892 1292.421)" fill="#232323"/>
      <path id="Trazado_887750" data-name="Trazado 887750" d="M338.192,78.478a8.991,8.991,0,0,0,12.926,0c9.167-9.478,24.526-28.3,24.385-47.9-.005-.659-.031-1.327-.078-1.983a2.6,2.6,0,0,0-5.184.371c.039.545.061,1.1.065,1.649.133,18.406-15.987,37.075-22.923,44.246a3.8,3.8,0,0,1-5.456,0c-7.573-7.83-24.948-28.13-22.729-47.482A25.233,25.233,0,0,1,344.431,5.2a25.819,25.819,0,0,1,23.113,14.1,2.6,2.6,0,0,0,4.628-2.363A30.993,30.993,0,0,0,344.432,0a30.427,30.427,0,0,0-30.4,26.792c-1.072,9.353,1.615,19.667,7.987,30.658A112.442,112.442,0,0,0,338.192,78.478Z" transform="translate(420.001 1314)" fill="#232323"/>
      <path id="Trazado_887751" data-name="Trazado 887751" d="M392.456,267.163H363.689a2.6,2.6,0,1,0,0,5.2h28.767a2.6,2.6,0,1,0,0-5.2Z" transform="translate(387.514 1130.448)" fill="#232323"/>
    </g>
    <rect id="Rectángulo_404863" data-name="Rectángulo 404863" width="81" height="98" transform="translate(265.051 805)" fill="none"/>
  </g>
</svg>
