<svg xmlns="http://www.w3.org/2000/svg" xmlns:xlink="http://www.w3.org/1999/xlink" width="81.446" height="79.533" viewBox="0 0 81.446 79.533">
  <defs>
    <clipPath id="clip-path">
      <rect id="Rect치ngulo_404878" data-name="Rect치ngulo 404878" width="81.446" height="79.533" transform="translate(0 0)" fill="none"/>
    </clipPath>
  </defs>
  <g id="Grupo_1107774" data-name="Grupo 1107774" clip-path="url(#clip-path)">
    <path id="Trazado_887879" data-name="Trazado 887879" d="M252.6,89.7,199.648,78.737a1.981,1.981,0,0,0-2.345,1.517l-5.833,27.579,21.622,13.824,10.5-9.2,8.764,9.8,19.027-17.24,2.747-12.989A1.961,1.961,0,0,0,252.6,89.7" transform="translate(-182.227 -74.895)" fill="#f6de44"/>
    <path id="Trazado_887880" data-name="Trazado 887880" d="M222.186,113.864l-8.769-9.8L203,113.189l-22.18-14.181,5.9-27.889a2.442,2.442,0,0,1,2.886-1.871l52.953,10.967a2.423,2.423,0,0,1,1.548,1.052,2.387,2.387,0,0,1,.34,1.812l-2.778,13.134Zm-8.69-11.091,8.758,9.791,18.575-16.831,2.716-12.843a1.475,1.475,0,0,0-.211-1.12,1.512,1.512,0,0,0-.966-.656L189.415,70.147a1.523,1.523,0,0,0-1.8,1.163l-5.767,27.268,21.065,13.468Z" transform="translate(-172.087 -65.856)"/>
    <path id="Trazado_887881" data-name="Trazado 887881" d="M177.531,649.119,148.987,670.76,136.333,660.8l-13.242,9.514-21.431-16.2V693.4a3.956,3.956,0,0,0,4,3.912H174.2a3.956,3.956,0,0,0,4-3.912V651.284a3.834,3.834,0,0,0-.669-2.165" transform="translate(-96.753 -617.781)" fill="#7bb5f2"/>
    <path id="Trazado_887882" data-name="Trazado 887882" d="M14.048,1488.684a3.668,3.668,0,0,1-3.664-3.664H11.3a2.75,2.75,0,0,0,2.746,2.746Z" transform="translate(-9.883 -1413.327)"/>
    <rect id="Rect치ngulo_404877" data-name="Rect치ngulo 404877" width="70.128" height="0.917" transform="translate(4.165 74.439)"/>
    <path id="Trazado_887883" data-name="Trazado 887883" d="M1541.627,1485.021a2.749,2.749,0,0,1-2.746,2.746v.917a3.668,3.668,0,0,0,3.664-3.664Z" transform="translate(-1464.587 -1413.328)"/>
    <path id="Trazado_887884" data-name="Trazado 887884" d="M35.754,607.12a.457.457,0,0,1-.278-.094L12.956,589.835a.459.459,0,1,1,.557-.729L36.032,606.3a.459.459,0,0,1-.279.823" transform="translate(-12.159 -560.576)"/>
    <path id="Trazado_887885" data-name="Trazado 887885" d="M1015.168,615.757a.459.459,0,0,1-.276-.826l27.9-20.921a.459.459,0,0,1,.55.734l-27.9,20.921a.456.456,0,0,1-.275.092" transform="translate(-965.721 -565.246)"/>
    <path id="Trazado_887886" data-name="Trazado 887886" d="M83.942,910.661l-31.414-23a2.277,2.277,0,0,0-2.667,0h0L12.572,914.963l.542.74L50.4,888.4l-.271-.37.271.37a1.352,1.352,0,0,1,1.583,0l31.414,23a.459.459,0,0,0,.542-.74" transform="translate(-11.965 -844.393)"/>
    <path id="Trazado_887887" data-name="Trazado 887887" d="M676.563,44.458c-.077-6.961-.333-7.217-.539-7.423L675.987,37h0c-.062-.329-.581-.991-5.9-5.064-3.035-2.323-7.261-5.467-12.561-9.343C648.5,15.992,639.37,9.468,639.279,9.4h0a2.277,2.277,0,0,0-2.648,0h0l-7.882,5.4a.459.459,0,1,0,.518.757l7.882-5.4.006,0,.006,0a1.352,1.352,0,0,1,1.583,0l0,0h0c.088.063,8.932,6.381,17.8,12.866,15.729,11.5,18.234,13.782,18.541,14.219a.773.773,0,0,0,.241.406c.161.493.477,3.7.265,21.966-.12,10.319-.352,20.515-.354,20.617a.458.458,0,0,0,.448.469h.011a.459.459,0,0,0,.458-.448c0-.1.241-10.6.359-21.083.07-6.157.085-11.1.045-14.7" transform="translate(-598.202 -8.541)"/>
    <path id="Trazado_887888" data-name="Trazado 887888" d="M7.547,468.016l-6.316,4.925A2.816,2.816,0,0,0,0,475.308l.5,41.4a.459.459,0,0,0,.458.453H.965a.459.459,0,0,0,.453-.464l-.5-41.4a1.9,1.9,0,0,1,.841-1.6l.026-.019,6.328-4.935a.459.459,0,0,0-.564-.723" transform="translate(0 -445.329)"/>
    <path id="Trazado_887889" data-name="Trazado 887889" d="M225.71,190.958l-45.473.065S166.4,201.562,166.4,202.952l.21,12.475,20.622,15.618,10.3-7.809,10.3,7.288s19.538-14.127,19.538-14.577l.515-22.8a2.18,2.18,0,0,0-2.168-2.192" transform="translate(-158.364 -181.739)" fill="#fff"/>
    <path id="Trazado_887890" data-name="Trazado 887890" d="M151.151,449.921h0a.459.459,0,0,0-.458.455l-.1,11.508a.459.459,0,0,0,.455.463h0a.459.459,0,0,0,.458-.455l.1-11.508a.459.459,0,0,0-.455-.463" transform="translate(-143.317 -428.2)"/>
    <path id="Trazado_887891" data-name="Trazado 887891" d="M489.41,183.705a2.638,2.638,0,0,0-2.6-2.247H440.746v.917h46.068a1.723,1.723,0,0,1,1.709,1.733h.014v23.369h.917V183.705Z" transform="translate(-419.468 -172.698)"/>
    <path id="Trazado_887892" data-name="Trazado 887892" d="M166.774,181.5a.459.459,0,0,0-.5.085L152.83,194.108a.459.459,0,0,0,.312.794h.025l9.378-.5a4.545,4.545,0,0,0,4.5-4.562v-7.923a.459.459,0,0,0-.276-.421" transform="translate(-145.313 -172.698)"/>
    <path id="Trazado_887893" data-name="Trazado 887893" d="M961.593,360.42H945.72a.536.536,0,0,0-.536.536v19.725a.536.536,0,0,0,.536.536h15.873a.536.536,0,0,0,.536-.536V360.956a.536.536,0,0,0-.536-.536" transform="translate(-899.553 -343.02)" fill="#8d1ce7"/>
    <path id="Trazado_887894" data-name="Trazado 887894" d="M916.552,314.92H900.679a1,1,0,0,0-.995.995v19.725a1,1,0,0,0,.995.995h15.873a1,1,0,0,0,.995-.995V315.915a1,1,0,0,0-.995-.995m.077,20.719a.077.077,0,0,1-.077.077H900.679a.077.077,0,0,1-.077-.077V315.915a.077.077,0,0,1,.077-.077h15.873a.077.077,0,0,1,.077.077Z" transform="translate(-856.25 -299.716)"/>
    <path id="Trazado_887895" data-name="Trazado 887895" d="M1041.662,2.791a5.116,5.116,0,0,0-3.456-2.526c-3.6-.884-5.96.412-7.219,3.961-1.4,3.952-4.975,15.842-5.012,15.965a5.209,5.209,0,0,0,.177,4.026,4.3,4.3,0,0,0,2.682,2,5.141,5.141,0,0,0,1.438.217,3.791,3.791,0,0,0,1.915-.494,5.6,5.6,0,0,0,2.361-3.48l4.337-14.871a4.53,4.53,0,0,0,.1-2.956,2.284,2.284,0,0,0-1.578-1.328,2.172,2.172,0,0,0-2.08.34,5.618,5.618,0,0,0-1.6,2.907l-3.676,12.192a.459.459,0,0,0,.878.265l3.677-12.2c.905-3.1,2.01-2.782,2.54-2.627a1.377,1.377,0,0,1,.987.8,3.769,3.769,0,0,1-.13,2.351l-4.337,14.871a4.741,4.741,0,0,1-1.938,2.942,3.287,3.287,0,0,1-2.638.191c-1.54-.449-3.177-1.662-2.237-4.888.036-.119,3.6-11.988,5-15.919,1.1-3.106,2.994-4.148,6.135-3.376a4.226,4.226,0,0,1,2.863,2.063c.706,1.335.643,3.209-.181,5.419a.459.459,0,1,0,.859.321c.932-2.5.977-4.573.133-6.169" transform="translate(-976.149 0.002)"/>
    <path id="Trazado_887896" data-name="Trazado 887896" d="M416.011,496.6h18.323a.418.418,0,0,0,0-.835H416.011a.418.418,0,1,0,0,.835" transform="translate(-395.529 -471.835)"/>
    <path id="Trazado_887897" data-name="Trazado 887897" d="M440.737,749.864H422.414a.418.418,0,0,0,0,.835h18.323a.418.418,0,0,0,0-.835" transform="translate(-401.623 -713.662)"/>
    <path id="Trazado_887898" data-name="Trazado 887898" d="M661.517,639.769a.418.418,0,1,0,0,.835h6.78a.418.418,0,1,0,0-.835Z" transform="translate(-629.183 -608.883)"/>
    <path id="Trazado_887899" data-name="Trazado 887899" d="M648.951,379.6h6.78a.418.418,0,0,0,0-.835h-6.78a.418.418,0,1,0,0,.835" transform="translate(-617.224 -360.483)"/>
    <path id="Trazado_887900" data-name="Trazado 887900" d="M421.512,606.7a.418.418,0,0,0,0-.835h-6.561a.418.418,0,0,0,0,.835Z" transform="translate(-394.521 -576.614)"/>
  </g>
</svg>
