<svg xmlns="http://www.w3.org/2000/svg" width="13.335" height="11.854" viewBox="0 0 13.335 11.854">
  <path id="bullhorn-solid" d="M13.335,5.556a1.478,1.478,0,0,0-.741-1.276V.741a.741.741,0,0,0-1.2-.579L9.423,1.736a5.61,5.61,0,0,1-3.5,1.227H1.482A1.482,1.482,0,0,0,0,4.445V6.668A1.482,1.482,0,0,0,1.482,8.149h.78a5.581,5.581,0,0,0-.051.741A5.852,5.852,0,0,0,2.8,11.458a.727.727,0,0,0,.657.4h1.72a.736.736,0,0,0,.6-1.171A2.95,2.95,0,0,1,5.174,8.89a2.792,2.792,0,0,1,.1-.741h.651a5.61,5.61,0,0,1,3.5,1.227l1.968,1.574a.741.741,0,0,0,1.2-.579V6.832A1.473,1.473,0,0,0,13.335,5.556ZM11.113,8.83l-.766-.611a7.1,7.1,0,0,0-4.42-1.551V4.445a7.108,7.108,0,0,0,4.422-1.551l.764-.611Z" fill="#fa7247"/>
</svg>
