<svg xmlns="http://www.w3.org/2000/svg" width="42.971" height="52" viewBox="0 0 42.971 52">
  <g id="Grupo_1108175" data-name="Grupo 1108175" transform="translate(-194.73 -5774.494)">
    <rect id="Rectángulo_402557" data-name="Rectángulo 402557" width="26" height="52" rx="5" transform="translate(194.73 5774.494)" fill="#fd9f81"/>
    <g id="lectern_5609475" transform="translate(147.318 5776.232)">
      <g id="Grupo_1106073" data-name="Grupo 1106073" transform="translate(50.659 0.736)">
        <g id="Grupo_1106072" data-name="Grupo 1106072">
          <g id="Grupo_1106061" data-name="Grupo 1106061" transform="translate(8.78 0)">
            <g id="Grupo_1106060" data-name="Grupo 1106060">
              <path id="Trazado_875221" data-name="Trazado 875221" d="M166.964,19.817V16.888a9.388,9.388,0,1,0-18.777,0v2.929a9.619,9.619,0,0,1-.874,4.047l-.024.053a4.687,4.687,0,0,0,3.59,6.591,6.742,6.742,0,0,0,.918.063h11.561a6.742,6.742,0,0,0,.918-.063,4.687,4.687,0,0,0,3.59-6.591l-.025-.053A9.615,9.615,0,0,1,166.964,19.817Z" transform="translate(-146.86 -7.5)" fill="#688b96"/>
            </g>
          </g>
          <g id="Grupo_1106062" data-name="Grupo 1106062" transform="translate(18.34)">
            <path id="Trazado_875222" data-name="Trazado 875222" d="M255.689,23.918l-.025-.053a9.618,9.618,0,0,1-.874-4.047V16.888A9.388,9.388,0,0,0,245.4,7.5a9.5,9.5,0,0,0-1.155.071h1.435a2.692,2.692,0,0,1,2.692,2.692V30.571h2.808a6.742,6.742,0,0,0,.918-.063A4.687,4.687,0,0,0,255.689,23.918Z" transform="translate(-244.246 -7.5)" fill="#557981"/>
          </g>
          <path id="Trazado_875223" data-name="Trazado 875223" d="M177.059,114.159h-14.6a2.087,2.087,0,1,1,0-4.174h14.6a2.087,2.087,0,0,1,0,4.174Z" transform="translate(-150.262 -99.924)" fill="#ffb983"/>
          <g id="Grupo_1106070" data-name="Grupo 1106070" transform="translate(0 15.866)">
            <g id="Grupo_1106067" data-name="Grupo 1106067" transform="translate(2.68)">
              <g id="Grupo_1106066" data-name="Grupo 1106066" transform="translate(2.329)">
                <g id="Grupo_1106065" data-name="Grupo 1106065">
                  <g id="Grupo_1106064" data-name="Grupo 1106064">
                    <g id="Grupo_1106063" data-name="Grupo 1106063">
                      <path id="Trazado_875224" data-name="Trazado 875224" d="M126.386,173.8v-4.682h-6.9V173.8a2.177,2.177,0,0,1-1.73,2.131l-2.015.423a9.171,9.171,0,0,0-7.289,8.976v5.84H137.42v-5.84a9.171,9.171,0,0,0-7.289-8.976l-2.015-.423A2.177,2.177,0,0,1,126.386,173.8Z" transform="translate(-108.451 -169.121)" fill="#fcd0a3"/>
                      <path id="Trazado_875225" data-name="Trazado 875225" d="M184.921,275.333v7.607h13.955v-7.607a29.941,29.941,0,0,0-.334-4.456,12.778,12.778,0,0,1-13.288,0A29.955,29.955,0,0,0,184.921,275.333Z" transform="translate(-177.414 -260.888)" fill="#fffae3"/>
                      <path id="Trazado_875226" data-name="Trazado 875226" d="M108.451,247.917v5.84h8.2v-8.922a18.579,18.579,0,0,1,1.107-6.317l-2.015.423A9.172,9.172,0,0,0,108.451,247.917Z" transform="translate(-108.451 -231.706)" fill="#fb636f"/>
                      <path id="Trazado_875227" data-name="Trazado 875227" d="M318.082,247.917v5.84h-8.2v-8.922a18.578,18.578,0,0,0-1.107-6.317l2.015.423A9.172,9.172,0,0,1,318.082,247.917Z" transform="translate(-289.113 -231.706)" fill="#fb636f"/>
                      <path id="Trazado_875228" data-name="Trazado 875228" d="M310.794,238.942l-2.015-.423a18.583,18.583,0,0,1,.929,3.761,9.152,9.152,0,0,1,1.94,5.638v5.84h6.434v-5.84a9.171,9.171,0,0,0-7.289-8.976Z" transform="translate(-289.113 -231.706)" fill="#fa2a3b"/>
                    </g>
                  </g>
                </g>
              </g>
              <path id="Trazado_875229" data-name="Trazado 875229" d="M116.593,383.027l1.761-11.323H84.727l1.761,11.323a2.025,2.025,0,0,0,2,1.714h26.1A2.025,2.025,0,0,0,116.593,383.027Z" transform="translate(-84.727 -351.817)" fill="#fbbe66"/>
              <path id="Trazado_875230" data-name="Trazado 875230" d="M328.055,371.7l-1.761,11.323a2.025,2.025,0,0,1-2,1.714h6.348a2.025,2.025,0,0,0,2-1.714L334.4,371.7Z" transform="translate(-300.776 -351.817)" fill="#fba615"/>
            </g>
            <g id="Grupo_1106069" data-name="Grupo 1106069" transform="translate(29.729 10.048)">
              <g id="Grupo_1106068" data-name="Grupo 1106068">
                <path id="Trazado_875231" data-name="Trazado 875231" d="M365.428,274.847a1.648,1.648,0,0,1-1.2.291l-2.547-.374a1.653,1.653,0,1,1,.48-3.272l2.547.374a1.653,1.653,0,0,1,.722,2.98Z" transform="translate(-360.265 -271.475)" fill="#3590bb"/>
              </g>
            </g>
            <path id="Trazado_875232" data-name="Trazado 875232" d="M94.781,358.675H59.054a1.63,1.63,0,0,1-1.63-1.63v-.936a1.63,1.63,0,0,1,1.63-1.63H94.781a1.63,1.63,0,0,1,1.63,1.63v.936A1.63,1.63,0,0,1,94.781,358.675Z" transform="translate(-57.424 -336.284)" fill="#fba615"/>
            <path id="Trazado_875233" data-name="Trazado 875233" d="M379.138,354.478h-4.775v2.566a1.63,1.63,0,0,1-1.63,1.63h6.4a1.63,1.63,0,0,0,1.63-1.63v-.936A1.63,1.63,0,0,0,379.138,354.478Z" transform="translate(-341.781 -336.282)" fill="#fa9801"/>
          </g>
          <g id="Grupo_1106071" data-name="Grupo 1106071" transform="translate(13.06 5.999)">
            <path id="Trazado_875234" data-name="Trazado 875234" d="M202.941,71.223a13.938,13.938,0,0,1-1.281-1.6,2.323,2.323,0,0,0-3.543-.362,8.317,8.317,0,0,1-5.833,2.377q-.16,0-.319-.006a1.448,1.448,0,0,0-1.507,1.445v2.635a6.434,6.434,0,0,0,12.868,0V72.205A1.443,1.443,0,0,0,202.941,71.223Z" transform="translate(-190.458 -68.606)" fill="#fcd0a3"/>
          </g>
          <path id="Trazado_875235" data-name="Trazado 875235" d="M246.153,71.264a13.937,13.937,0,0,1-1.281-1.6,2.335,2.335,0,0,0-1.794-1.016v7.106a6.437,6.437,0,0,1-4.7,6.1,6.433,6.433,0,0,0,8.164-6.1V72.246a1.443,1.443,0,0,0-.385-.982Z" transform="translate(-220.611 -62.648)" fill="#ffb983"/>
        </g>
      </g>
      <path id="Trazado_875236" data-name="Trazado 875236" d="M88.9,34.232V30.095a1.9,1.9,0,0,0-1.647-1.875l-.322-.042a2.389,2.389,0,0,0-1.99-1.865l-2.306-.339a9.83,9.83,0,0,0-3.445-2.344,5.389,5.389,0,0,0,1.749-1.915,5.463,5.463,0,0,0,.151-4.924,8.941,8.941,0,0,1-.806-3.738V10.124a10.125,10.125,0,0,0-20.249,0v2.929a9.134,9.134,0,0,1-.832,3.795,5.449,5.449,0,0,0,1.927,6.783,9.931,9.931,0,0,0-4.04,3.019.736.736,0,1,0,1.153.916A8.881,8.881,0,0,1,63.88,24.4a19.254,19.254,0,0,0-.752,5.335v4.33H56.4V32.813a8.432,8.432,0,0,1,.359-2.437.736.736,0,1,0-1.41-.425,9.9,9.9,0,0,0-.421,2.863v1.248H52.289a2.369,2.369,0,0,0-2.366,2.366v.936a2.369,2.369,0,0,0,2.366,2.366H53.1l1.274,8.195A2.747,2.747,0,0,0,57.1,50.261H83.2a2.747,2.747,0,0,0,2.728-2.337l.3-1.953a.736.736,0,1,0-1.455-.226l-.3,1.953a1.282,1.282,0,0,1-1.273,1.09H57.1a1.282,1.282,0,0,1-1.273-1.09L54.589,39.73H85.717l-.411,2.64a.736.736,0,0,0,1.455.226l.446-2.867h.809a2.369,2.369,0,0,0,2.366-2.366v-.936A2.369,2.369,0,0,0,88.9,34.232Zm-1.473-4.137v3.967H85.374V32.813a9.883,9.883,0,0,0-.172-1.827,2.386,2.386,0,0,0,1.574-1.343l.283.037a.42.42,0,0,1,.364.415ZM77.177,34.062v-4.33a19.251,19.251,0,0,0-.752-5.335,9.157,9.157,0,0,1,4.362,1.874,2.389,2.389,0,0,0,.907,4.4l2,.293a8.42,8.42,0,0,1,.208,1.852v1.248H77.177ZM67.438,21.284v-.895a7.214,7.214,0,0,0,5.43,0v.9a2.928,2.928,0,0,0,1.9,2.729,17.829,17.829,0,0,1,.648,2.495,12.022,12.022,0,0,1-10.516,0,17.829,17.829,0,0,1,.648-2.495,2.928,2.928,0,0,0,1.9-2.729Zm-4.455-7.427c0,.127.008.253.016.378h-.147a1.351,1.351,0,0,1,0-2.7h.13v2.312S62.983,13.853,62.983,13.857Zm1.472-.017V11.211a.712.712,0,0,1,.743-.71q.172.006.346.006A9.03,9.03,0,0,0,71.892,7.92a1.587,1.587,0,0,1,2.421.252c1.13,1.647,1.537,1.635,1.537,2.162V13.84a5.7,5.7,0,0,1-11.395,0Zm13-2.307a1.351,1.351,0,0,1,0,2.7h-.149c.008-.126.014-.252.016-.378,0,0,0-.007,0-.011V11.533h.133ZM85.5,28.811a.917.917,0,0,1-1.041.774l-2.548-.374a.917.917,0,0,1,.131-1.825c.127,0,.047,0,2.683.384a.917.917,0,0,1,.774,1.041Zm-5.855-7.8A3.869,3.869,0,0,1,76.9,22.99l-1.411-.3a1.447,1.447,0,0,1-1.145-1.41V19.57a7.162,7.162,0,0,0,2.711-3.862,3.171,3.171,0,0,0,1.98-.482,10.36,10.36,0,0,0,.741,2.234,3.935,3.935,0,0,1-.13,3.55ZM70.154,1.472a8.662,8.662,0,0,1,8.652,8.652v.28a2.806,2.806,0,0,0-1.35-.344H77.3c-.134-1.067-.678-1.122-1.776-2.722a3.06,3.06,0,0,0-4.665-.471,7.565,7.565,0,0,1-5.318,2.167q-.146,0-.291-.005a2.174,2.174,0,0,0-1.941,1.031,3.388,3.388,0,0,0-1.811.345v-.281A8.662,8.662,0,0,1,70.154,1.472ZM60.535,17.461a10.149,10.149,0,0,0,.741-2.235,3.172,3.172,0,0,0,1.978.482,7.161,7.161,0,0,0,2.712,3.863v1.714a1.447,1.447,0,0,1-1.145,1.41l-1.41.3a3.869,3.869,0,0,1-2.745-1.98,3.934,3.934,0,0,1-.131-3.549ZM64.6,29.731q0-.854.082-1.7a13.489,13.489,0,0,0,10.94,0q.081.845.082,1.7v4.33H64.6ZM88.91,37.364a.9.9,0,0,1-.894.894H52.289a.9.9,0,0,1-.894-.894v-.936a.9.9,0,0,1,.894-.894H88.017a.9.9,0,0,1,.894.894Z"/>
    </g>
  </g>
</svg>
